<?xml version="1.0" encoding="UTF-8"?>
<!DOCTYPE svg PUBLIC "-//W3C//DTD SVG 1.1//EN" "http://www.w3.org/Graphics/SVG/1.1/DTD/svg11.dtd">
<svg version="1.1" xmlns="http://www.w3.org/2000/svg" xmlns:xlink="http://www.w3.org/1999/xlink" x="0" y="0" width="24" height="24" viewBox="0, 0, 24, 24">
  <g id="bank" transform="translate(0, 0)">
    <path d="M23.958,14.284 L22.405,14.284 L22.405,4.937 L5.881,4.937 L5.881,3.456 L23.958,3.456 L23.958,14.284 z" fill="#040000"/>
    <path d="M21.038,17.414 L19.486,17.414 L19.486,8.067 L2.962,8.067 L2.962,6.586 L21.038,6.586 L21.038,17.414 z" fill="#040000"/>
    <path d="M0.042,9.714 L18.119,9.714 L18.119,20.544 L0.042,20.544 L0.042,9.714 z" fill="#040000"/>
    <path d="M8.989,19.365 C7.233,19.337 5.84,17.389 5.878,15.016 C5.917,12.642 7.372,10.741 9.128,10.769 C10.885,10.797 12.278,12.745 12.239,15.119 C12.201,17.492 10.746,19.394 8.989,19.365 z" fill="#F1ECEC"/>
    <path d="M11.008,16.401 L11.008,18.005 Q11.008,18.067 10.974,18.106 Q10.939,18.145 10.886,18.145 L7.232,18.145 Q7.178,18.145 7.144,18.106 Q7.109,18.067 7.109,18.005 L7.109,17.35 Q7.109,17.293 7.146,17.251 Q7.182,17.21 7.232,17.21 L7.602,17.21 L7.602,15.535 L7.239,15.535 Q7.186,15.535 7.151,15.493 Q7.117,15.452 7.117,15.395 L7.117,14.822 Q7.117,14.761 7.151,14.722 Q7.186,14.682 7.239,14.682 L7.602,14.682 L7.602,13.707 Q7.602,12.96 8.074,12.474 Q8.547,11.989 9.277,11.989 Q9.984,11.989 10.557,12.536 Q10.592,12.571 10.595,12.625 Q10.599,12.68 10.569,12.724 L10.175,13.279 Q10.14,13.327 10.091,13.331 Q10.041,13.34 10.003,13.301 Q9.984,13.279 9.904,13.218 Q9.823,13.156 9.64,13.078 Q9.456,12.999 9.284,12.999 Q8.959,12.999 8.761,13.205 Q8.562,13.41 8.562,13.742 L8.562,14.682 L9.728,14.682 Q9.777,14.682 9.814,14.722 Q9.85,14.761 9.85,14.822 L9.85,15.395 Q9.85,15.452 9.814,15.493 Q9.777,15.535 9.728,15.535 L8.562,15.535 L8.562,17.192 L10.144,17.192 L10.144,16.401 Q10.144,16.344 10.179,16.302 Q10.213,16.261 10.267,16.261 L10.886,16.261 Q10.939,16.261 10.974,16.302 Q11.008,16.344 11.008,16.401 z" fill="#000000"/>
  </g>
</svg>
