<?xml version="1.0" encoding="UTF-8"?>
<!DOCTYPE svg PUBLIC "-//W3C//DTD SVG 1.1//EN" "http://www.w3.org/Graphics/SVG/1.1/DTD/svg11.dtd">
<svg version="1.1" xmlns="http://www.w3.org/2000/svg" xmlns:xlink="http://www.w3.org/1999/xlink" x="0" y="0" width="24" height="24" viewBox="0, 0, 24, 24">
  <g id="check-C" transform="translate(0, 0)">
    <g>
      <path d="M2.617,15.88 C2.617,15.88 6.518,20.333 7.297,22.152 L10.649,22.152 C12.054,17.802 17.513,7.42 22.193,3.78 C23.161,2.517 20.727,1.995 18.761,2.832 C15.798,4.092 10.211,13.722 9.168,16.038 C7.689,16.433 6.128,13.507 6.126,13.507 z" fill="#5695E3"/>
      <path d="M2.617,15.88 C2.617,15.88 6.518,20.333 7.297,22.152 L10.649,22.152 C12.054,17.802 17.513,7.42 22.193,3.78 C23.161,2.517 20.727,1.995 18.761,2.832 C15.798,4.092 10.211,13.722 9.168,16.038 C7.689,16.433 6.128,13.507 6.126,13.507 z" fill-opacity="0" stroke="#0C0590" stroke-width="1" stroke-opacity="0.925"/>
    </g>
  </g>
</svg>
