<?xml version="1.0" encoding="UTF-8"?>
<!DOCTYPE svg PUBLIC "-//W3C//DTD SVG 1.1//EN" "http://www.w3.org/Graphics/SVG/1.1/DTD/svg11.dtd">
<svg version="1.1" xmlns="http://www.w3.org/2000/svg" xmlns:xlink="http://www.w3.org/1999/xlink" x="0" y="0" width="24" height="24" viewBox="0, 0, 24, 24">
  <g id="icon-PC" transform="translate(0, 0)">
    <path d="M18.792,16.062 L18.792,20.949 Q18.792,21.135 18.672,21.255 Q18.552,21.375 18.365,21.375 L5.635,21.375 Q5.448,21.375 5.328,21.255 Q5.208,21.135 5.208,20.949 L5.208,18.951 Q5.208,18.778 5.335,18.652 Q5.461,18.525 5.635,18.525 L6.926,18.525 L6.926,13.425 L5.661,13.425 Q5.475,13.425 5.355,13.298 Q5.235,13.172 5.235,12.999 L5.235,11.254 Q5.235,11.068 5.355,10.948 Q5.475,10.828 5.661,10.828 L6.926,10.828 L6.926,7.858 Q6.926,5.581 8.571,4.103 Q10.216,2.625 12.759,2.625 Q15.223,2.625 17.22,4.29 Q17.34,4.396 17.353,4.563 Q17.367,4.729 17.26,4.862 L15.889,6.553 Q15.769,6.7 15.596,6.713 Q15.422,6.74 15.289,6.62 Q15.223,6.553 14.943,6.367 Q14.663,6.181 14.024,5.941 Q13.385,5.701 12.786,5.701 Q11.654,5.701 10.961,6.327 Q10.269,6.953 10.269,7.965 L10.269,10.828 L14.33,10.828 Q14.504,10.828 14.63,10.948 Q14.757,11.068 14.757,11.254 L14.757,12.999 Q14.757,13.172 14.63,13.298 Q14.504,13.425 14.33,13.425 L10.269,13.425 L10.269,18.472 L15.782,18.472 L15.782,16.062 Q15.782,15.889 15.902,15.762 Q16.022,15.635 16.208,15.635 L18.365,15.635 Q18.552,15.635 18.672,15.762 Q18.792,15.889 18.792,16.062 z" fill="#000000"/>
    <g>
      <path d="M5.375,3 L22.125,20.25" fill-opacity="0" stroke="#FFFFFF" stroke-width="1"/>
      <path d="M3.5,3 L19.75,20.625" fill-opacity="0" stroke="#EF0303" stroke-width="3"/>
    </g>
  </g>
</svg>
