<?xml version="1.0" encoding="UTF-8"?>
<!DOCTYPE svg PUBLIC "-//W3C//DTD SVG 1.1//EN" "http://www.w3.org/Graphics/SVG/1.1/DTD/svg11.dtd">
<svg version="1.1" xmlns="http://www.w3.org/2000/svg" xmlns:xlink="http://www.w3.org/1999/xlink" x="0" y="0" width="24" height="24" viewBox="0, 0, 24, 24">
  <g id="icon-PB" transform="translate(0, 0)">
    <path d="M6.902,6.833 L7.147,17.693 L4.672,17.352 L4.672,21.375 C6.088,21.296 7.277,21.165 8.595,21.165 C9.979,21.165 12.388,21.375 13.788,21.375 C17.24,21.375 19.6,19.85 19.6,16.142 C19.6,14.248 18.835,12.197 16.507,11.645 C17.858,11.145 18.981,9.936 18.981,7.569 C18.981,4.913 17.858,2.625 12.665,2.625 C8.628,2.625 6.349,3.046 4.428,3.466 L4.737,7.727 z M10.158,13.67 L12.551,13.67 C15.205,13.67 16.116,14.459 16.116,15.616 C16.116,17.036 14.912,18.088 12.616,18.088 C11.819,18.088 10.809,17.93 10.109,17.72 z M10.174,10.514 L10.223,6.464 C10.777,6.333 11.574,6.254 12.714,6.254 C14.488,6.254 15.335,7.122 15.335,8.41 C15.335,9.752 14.733,10.514 12.291,10.514 z" fill="#8E6414"/>
  </g>
</svg>
