<?xml version="1.0" encoding="UTF-8"?>
<!DOCTYPE svg PUBLIC "-//W3C//DTD SVG 1.1//EN" "http://www.w3.org/Graphics/SVG/1.1/DTD/svg11.dtd">
<svg version="1.1" xmlns="http://www.w3.org/2000/svg" xmlns:xlink="http://www.w3.org/1999/xlink" x="0" y="0" width="24" height="24" viewBox="0, 0, 24, 24">
  <g id="icon-PBC" transform="translate(0, 0)">
    <path d="M5.888,6.27 L6.133,17.131 L3.658,16.789 L3.658,20.812 C5.074,20.734 6.263,20.602 7.581,20.602 C8.965,20.602 11.374,20.812 12.774,20.812 C16.226,20.812 18.586,19.287 18.586,15.579 C18.586,13.686 17.821,11.635 15.493,11.082 C16.844,10.583 17.967,9.373 17.967,7.006 C17.967,4.35 16.844,2.062 11.651,2.062 C7.614,2.062 5.335,2.483 3.414,2.904 L3.723,7.164 z M9.144,13.107 L11.537,13.107 C14.191,13.107 15.102,13.896 15.102,15.053 C15.102,16.473 13.898,17.525 11.602,17.525 C10.805,17.525 9.795,17.368 9.095,17.157 z M9.16,9.952 L9.209,5.902 C9.763,5.77 10.56,5.692 11.7,5.692 C13.474,5.692 14.321,6.559 14.321,7.848 C14.321,9.189 13.719,9.952 11.277,9.952 z" fill="#8E6414"/>
    <g>
      <path d="M3.562,3.188 L20.312,20.438" fill-opacity="0" stroke="#FFFFFF" stroke-width="1"/>
      <path d="M1.688,3.188 L17.938,20.812" fill-opacity="0" stroke="#EF0303" stroke-width="3"/>
    </g>
  </g>
</svg>
