<?xml version="1.0" standalone="no"?>
<!DOCTYPE svg PUBLIC "-//W3C//DTD SVG 1.1//EN" "http://www.w3.org/Graphics/SVG/1.1/DTD/svg11.dtd">
<!--Generator: Xara Designer (www.xara.com), SVG filter version: 5.0.0.2-->
<svg stroke-width="0.501" stroke-linejoin="bevel" fill-rule="evenodd" xmlns:xlink="http://www.w3.org/1999/xlink" xmlns="http://www.w3.org/2000/svg" version="1.1" overflow="visible" width="240.944pt" height="240.944pt" viewBox="0 0 240.944 240.944">
 <defs>
  <marker id="DefaultArrow2" markerUnits="strokeWidth" viewBox="0 0 1 1" markerWidth="1" markerHeight="1" overflow="visible" orient="auto">
   <!-- REF_ARROW_STRAIGHT (-2) -->
   <g transform="scale(0.0092592592)">
    <!-- 1/108 -->
    <path d="M -9 54 L -9 -54 L 117 0 z"/>
   </g>
  </marker>
  <marker id="DefaultArrow3" markerUnits="strokeWidth" viewBox="0 0 1 1" markerWidth="1" markerHeight="1" overflow="visible" orient="auto">
   <!-- REF_ARROW_ANGLED -->
   <g transform="scale(0.0092592592)">
    <path d="M -27 54 L -9 0 L -27 -54 L 135 0 z"/>
   </g>
  </marker>
  <marker id="DefaultArrow4" markerUnits="strokeWidth" viewBox="0 0 1 1" markerWidth="1" markerHeight="1" overflow="visible" orient="auto">
   <!-- REF_ARROW_ROUNDED -->
   <g transform="scale(0.0092592592)">
    <path d="M -9,0 L -9,-45 C -9,-51.708 2.808,-56.580 9,-54 L 117,-9 C 120.916,-7.369 126.000,-4.242 126,0 C 126,4.242 120.916,7.369 117,9 L 9,54 C 2.808,56.580 -9,51.708 -9,45 z"/>
   </g>
  </marker>
  <marker id="DefaultArrow5" markerUnits="strokeWidth" viewBox="0 0 1 1" markerWidth="1" markerHeight="1" overflow="visible" orient="auto">
   <!-- REF_ARROW_SPOT -->
   <g transform="scale(0.0092592592)">
    <path d="M -54, 0 C -54,29.807 -29.807,54 0,54 C 29.807,54 54,29.807 54,0 C 54,-29.807 29.807,-54 0,-54 C -29.807,-54 -54,-29.807 -54,0 z"/>
   </g>
  </marker>
  <marker id="DefaultArrow6" markerUnits="strokeWidth" viewBox="0 0 1 1" markerWidth="1" markerHeight="1" overflow="visible" orient="auto">
   <!-- REF_ARROW_DIAMOND -->
   <g transform="scale(0.0092592592)">
    <path d="M -63,0 L 0,63 L 63,0 L 0,-63 z"/>
   </g>
  </marker>
  <marker id="DefaultArrow7" markerUnits="strokeWidth" viewBox="0 0 1 1" markerWidth="1" markerHeight="1" overflow="visible" orient="auto">
   <!-- REF_ARROW_FEATHER -->
   <g transform="scale(0.0092592592)">
    <path d="M 18,-54 L 108,-54 L 63,0 L 108,54 L 18, 54 L -36,0 z"/>
   </g>
  </marker>
  <marker id="DefaultArrow8" markerUnits="strokeWidth" viewBox="0 0 1 1" markerWidth="1" markerHeight="1" overflow="visible" orient="auto">
   <!-- REF_ARROW_FEATHER2 -->
   <g transform="scale(0.0092592592)">
    <path d="M -36,0 L 18,-54 L 54,-54 L 18,-18 L 27,-18 L 63,-54 L 99,-54 L 63,-18 L 72,-18 L 108,-54 L 144,-54 L 90,0 L 144,54 L 108,54 L 72,18 L 63,18 L 99,54 L 63,54 L 27,18 L 18,18 L 54,54 L 18,54 z"/>
   </g>
  </marker>
  <marker id="DefaultArrow9" markerUnits="strokeWidth" viewBox="0 0 1 1" markerWidth="1" markerHeight="1" overflow="visible" orient="auto">
   <!-- REF_ARROW_HOLLOWDIAMOND -->
   <g transform="scale(0.0092592592)">
    <path d="M 0,45 L -45,0 L 0, -45 L 45, 0 z M 0, 63 L-63, 0 L 0, -63 L 63, 0 z"/>
   </g>
  </marker>
  <filter id="StainedFilter">
   <feBlend mode="multiply" in2="BackgroundImage" in="SourceGraphic" result="blend"/>
   <feComposite in="blend" in2="SourceAlpha" operator="in" result="comp"/>
  </filter>
  <filter id="BleachFilter">
   <feBlend mode="screen" in2="BackgroundImage" in="SourceGraphic" result="blend"/>
   <feComposite in="blend" in2="SourceAlpha" operator="in" result="comp"/>
  </filter>
  <filter id="InvertTransparencyBitmapFilter">
   <feComponentTransfer>
    <feFuncR type="gamma" amplitude="1.055" exponent=".416666666" offset="-0.055"/>
    <feFuncG type="gamma" amplitude="1.055" exponent=".416666666" offset="-0.055"/>
    <feFuncB type="gamma" amplitude="1.055" exponent=".416666666" offset="-0.055"/>
   </feComponentTransfer>
   <feComponentTransfer>
    <feFuncR type="linear" slope="-1" intercept="1"/>
    <feFuncG type="linear" slope="-1" intercept="1"/>
    <feFuncB type="linear" slope="-1" intercept="1"/>
    <feFuncA type="linear" slope="1" intercept="0"/>
   </feComponentTransfer>
   <feComponentTransfer>
    <feFuncR type="gamma" amplitude="1" exponent="2.4" offset="0"/>
    <feFuncG type="gamma" amplitude="1" exponent="2.4" offset="0"/>
    <feFuncB type="gamma" amplitude="1" exponent="2.4" offset="0"/>
   </feComponentTransfer>
  </filter>
 </defs>
 <g id="Document" fill="none" stroke="black" font-family="Times New Roman" font-size="16" transform="scale(1 -1)">
  <g id="Spread" transform="translate(0 -240.944)">
   <g id="background"/>
   <g id="Medalion">
    <path d="M 55.3,186.762 C 87.799,223.401 143.911,226.761 180.55,194.262 C 217.189,161.763 220.549,105.651 188.05,69.012 C 155.551,32.373 99.439,29.013 62.8,61.512 C 26.161,94.011 22.801,150.123 55.3,186.762 Z" stroke-linejoin="miter" fill="#ffffff" stroke-width="1" stroke="#ffffff" marker-start="none" marker-end="none" stroke-miterlimit="79.8403193612775"/>
    <g id="Group" font-size="18" font-weight="bold" font-family="Times New Roman" stroke-linejoin="miter">
     <text xml:space="preserve" transform="translate(112.05 197.749) scale(1 -1)" stroke="none" fill="#000000" stroke-width="0.25"><tspan x="0" y="0">N</tspan></text>
     <text xml:space="preserve" transform="translate(116.032 46.074) scale(1 -1)" stroke="none" fill="#000000" stroke-width="0.25"><tspan x="0" y="0">S</tspan></text>
     <text xml:space="preserve" transform="translate(35.312 122.282) scale(1 -1)" stroke="none" fill="#000000" stroke-width="0.25"><tspan x="0" y="0">W</tspan><tspan x="158.292" y="0">E</tspan></text>
     <path d="M 210.523,127.342 C 210.523,78.168 170.659,38.303 121.484,38.303 C 72.309,38.303 32.445,78.168 32.445,127.342 C 32.445,176.517 72.309,216.381 121.484,216.381 C 170.659,216.381 210.523,176.517 210.523,127.342 Z" fill="none" stroke="#000000" stroke-width="5" marker-start="none" marker-end="none"/>
     <path d="M 186.631,127.333 C 186.631,91.65 157.445,62.727 121.442,62.727 C 85.44,62.727 56.254,91.65 56.254,127.333 C 56.254,163.013 85.44,191.938 121.442,191.938 C 157.445,191.938 186.631,163.013 186.631,127.333 Z" stroke="none" fill="#005447" stroke-width="0.25" fill-rule="nonzero" marker-start="none" marker-end="none"/>
     <path d="M 186.631,127.333 C 186.631,91.65 157.445,62.727 121.442,62.727 C 85.44,62.727 56.254,91.65 56.254,127.333 C 56.254,163.013 85.44,191.938 121.442,191.938 C 157.445,191.938 186.631,163.013 186.631,127.333 Z" fill="none" stroke="#005447" stroke-width="5" marker-start="none" marker-end="none"/>
     <path d="M 121.159,59.837 C 121.159,59.837 188.639,127.317 188.639,127.317 C 188.639,127.317 121.159,194.798 121.159,194.798 C 121.159,194.798 53.677,127.317 53.677,127.317 C 53.677,127.317 121.159,59.837 121.159,59.837 Z" stroke="none" fill="#ff1a00" stroke-width="0.25" fill-rule="nonzero" marker-start="none" marker-end="none"/>
     <path d="M 168.363,174.04 C 168.363,174.04 168.363,112.538 168.363,112.538 C 167.444,91.218 154.274,75.637 121.244,65.404 C 101.289,72.63 73.418,85.614 73.877,112.402 C 73.968,117.747 73.877,174.04 73.877,174.04 C 73.877,174.04 168.363,174.04 168.363,174.04 Z" stroke="none" fill="#8adbff" stroke-width="0.25" fill-rule="nonzero" marker-start="none" marker-end="none"/>
     <path d="M 168.363,174.04 C 168.363,174.04 168.363,112.538 168.363,112.538 C 167.444,91.218 154.274,75.637 121.244,65.404 C 101.289,72.63 73.418,85.614 73.877,112.402 C 73.968,117.747 73.877,174.04 73.877,174.04 C 73.877,174.04 168.363,174.04 168.363,174.04 Z" fill="none" stroke="#fede58" stroke-width="2" marker-start="none" marker-end="none"/>
     <path d="M 121.248,127.605 C 121.337,127.667 115.06,134.93 115.152,135.006 C 115.711,135.465 116.276,136.157 116.276,136.766 C 116.276,137.475 116.276,160.002 116.276,160.002 C 115.568,161.986 113.868,163.829 113.159,164.466 C 112.45,165.103 111.742,166.024 111.742,166.024 C 112.167,167.229 112.876,166.308 113.726,166.166 C 114.576,166.024 116.441,165.306 117.654,165.75 C 118.867,166.193 118.826,167.724 119.748,168.504 C 120.668,169.283 119.89,169.075 121.168,169.079 L 121.248,127.605 Z" stroke="none" fill="#fede58" stroke-width="0.25" fill-rule="nonzero" marker-start="none" marker-end="none"/>
     <path d="M 121.248,127.605 C 121.337,127.667 115.06,134.93 115.152,135.006 C 115.711,135.465 116.276,136.157 116.276,136.766 C 116.276,137.475 116.276,160.002 116.276,160.002 C 115.568,161.986 113.868,163.829 113.159,164.466 C 112.45,165.103 111.742,166.024 111.742,166.024 C 112.167,167.229 112.876,166.308 113.726,166.166 C 114.576,166.024 116.441,165.306 117.654,165.75 C 118.867,166.193 118.826,167.724 119.748,168.504 C 120.668,169.283 119.89,169.075 121.168,169.079" fill="none" stroke="#fede58" stroke-width="1"/>
     <path d="M 121.226,130.912 C 121.154,131.019 126.394,135.76 126.341,135.831 C 126.078,136.182 126.029,136.182 126.029,136.772 C 126.029,137.48 126.029,160.008 126.029,160.008 C 126.739,161.992 128.438,163.834 129.146,164.471 C 129.855,165.109 130.563,166.03 130.563,166.03 C 130.139,167.235 129.428,166.314 128.581,166.171 C 127.729,166.029 125.864,165.312 124.652,165.756 C 123.439,166.199 123.479,167.729 122.559,168.509 C 121.638,169.289 122.416,169.081 121.138,169.084 L 121.226,130.912 Z" stroke="none" fill="#fede58" stroke-width="0.25" fill-rule="nonzero" marker-start="none" marker-end="none"/>
     <path d="M 121.226,130.912 C 121.154,131.019 126.394,135.76 126.341,135.831 C 126.078,136.182 126.029,136.182 126.029,136.772 C 126.029,137.48 126.029,160.008 126.029,160.008 C 126.739,161.992 128.438,163.834 129.146,164.471 C 129.855,165.109 130.563,166.03 130.563,166.03 C 130.139,167.235 129.428,166.314 128.581,166.171 C 127.729,166.029 125.864,165.312 124.652,165.756 C 123.439,166.199 123.479,167.729 122.559,168.509 C 121.638,169.289 122.416,169.081 121.138,169.084" fill="none" stroke="#fede58" stroke-width="1"/>
     <path d="M 120.262,129.304 C 120.184,129.437 115.318,123.624 115.212,123.752 C 114.827,124.22 114.277,124.614 113.72,124.614 C 113.012,124.614 90.483,124.614 90.483,124.614 C 88.5,123.906 86.658,122.205 86.02,121.496 C 85.382,120.789 84.461,120.078 84.461,120.078 C 83.256,120.504 84.178,121.215 84.32,122.063 C 84.461,122.914 85.18,124.779 84.736,125.991 C 84.292,127.203 82.762,127.164 81.982,128.084 C 81.202,129.006 81.411,128.226 81.407,129.505 L 120.262,129.304 Z" stroke="none" fill="#fede58" stroke-width="0.25" fill-rule="nonzero" marker-start="none" marker-end="none"/>
     <path d="M 120.262,129.304 C 120.184,129.437 115.318,123.624 115.212,123.752 C 114.827,124.22 114.277,124.614 113.72,124.614 C 113.012,124.614 90.483,124.614 90.483,124.614 C 88.5,123.906 86.658,122.205 86.02,121.496 C 85.382,120.789 84.461,120.078 84.461,120.078 C 83.256,120.504 84.178,121.215 84.32,122.063 C 84.461,122.914 85.18,124.779 84.736,125.991 C 84.292,127.203 82.762,127.164 81.982,128.084 C 81.202,129.006 81.411,128.226 81.407,129.505" fill="none" stroke="#fede58" stroke-width="1"/>
     <path d="M 120.996,126.872 C 120.938,126.833 114.809,134.788 114.762,134.754 C 114.3,134.426 114.358,134.368 113.714,134.368 C 113.006,134.368 90.478,134.368 90.478,134.368 C 88.494,135.075 86.651,136.776 86.014,137.484 C 85.376,138.193 84.456,138.901 84.456,138.901 C 83.251,138.476 84.171,137.766 84.314,136.917 C 84.456,136.068 85.174,134.203 84.73,132.99 C 84.286,131.777 82.756,131.817 81.976,130.896 C 81.197,129.975 81.404,130.754 81.401,129.476 L 120.996,126.872 Z" stroke="none" fill="#fede58" stroke-width="0.25" fill-rule="nonzero" marker-start="none" marker-end="none"/>
     <path d="M 120.996,126.872 C 120.938,126.833 114.809,134.788 114.762,134.754 C 114.3,134.426 114.358,134.368 113.714,134.368 C 113.006,134.368 90.478,134.368 90.478,134.368 C 88.494,135.075 86.651,136.776 86.014,137.484 C 85.376,138.193 84.456,138.901 84.456,138.901 C 83.251,138.476 84.171,137.766 84.314,136.917 C 84.456,136.068 85.174,134.203 84.73,132.99 C 84.286,131.777 82.756,131.817 81.976,130.896 C 81.197,129.975 81.404,130.754 81.401,129.476" fill="none" stroke="#fede58" stroke-width="1"/>
     <path d="M 120.584,129.579 C 120.488,129.513 126.699,124.242 126.601,124.16 C 126.049,123.7 125.498,123.018 125.498,122.416 C 125.498,121.709 125.498,99.18 125.498,99.18 C 126.206,97.197 127.907,95.355 128.615,94.717 C 129.323,94.08 130.031,93.16 130.031,93.16 C 129.606,91.955 128.898,92.873 128.049,93.018 C 127.197,93.16 125.333,93.877 124.119,93.434 C 122.907,92.99 122.946,91.459 122.027,90.678 C 121.104,89.9 121.885,90.109 120.605,90.104 L 120.584,129.579 Z" stroke="none" fill="#fede58" stroke-width="0.25" fill-rule="nonzero" marker-start="none" marker-end="none"/>
     <path d="M 120.584,129.579 C 120.488,129.513 126.699,124.242 126.601,124.16 C 126.049,123.7 125.498,123.018 125.498,122.416 C 125.498,121.709 125.498,99.18 125.498,99.18 C 126.206,97.197 127.907,95.355 128.615,94.717 C 129.323,94.08 130.031,93.16 130.031,93.16 C 129.606,91.955 128.898,92.873 128.049,93.018 C 127.197,93.16 125.333,93.877 124.119,93.434 C 122.907,92.99 122.946,91.459 122.027,90.678 C 121.104,89.9 121.885,90.109 120.605,90.104" fill="none" stroke="#fede58" stroke-width="1"/>
     <path d="M 120.491,129.396 C 120.52,129.354 115.302,123.536 115.327,123.501 C 115.682,122.993 115.744,123.073 115.744,122.41 C 115.744,121.703 115.744,99.174 115.744,99.174 C 115.037,97.191 113.335,95.35 112.627,94.713 C 111.918,94.074 111.211,93.152 111.211,93.152 C 111.635,91.949 112.345,92.869 113.194,93.012 C 114.044,93.152 115.909,93.871 117.121,93.428 C 118.334,92.984 118.294,91.453 119.216,90.674 C 120.137,89.893 119.357,90.102 120.635,90.098 L 120.491,129.396 Z" stroke="none" fill="#fede58" stroke-width="0.25" fill-rule="nonzero" marker-start="none" marker-end="none"/>
     <path d="M 120.491,129.396 C 120.52,129.354 115.302,123.536 115.327,123.501 C 115.682,122.993 115.744,123.073 115.744,122.41 C 115.744,121.703 115.744,99.174 115.744,99.174 C 115.037,97.191 113.335,95.35 112.627,94.713 C 111.918,94.074 111.211,93.152 111.211,93.152 C 111.635,91.949 112.345,92.869 113.194,93.012 C 114.044,93.152 115.909,93.871 117.121,93.428 C 118.334,92.984 118.294,91.453 119.216,90.674 C 120.137,89.893 119.357,90.102 120.635,90.098" fill="none" stroke="#fede58" stroke-width="1"/>
     <path d="M 120.079,129.441 C 121.777,131.14 126.502,135.639 126.544,135.588 C 127.004,135.032 127.405,134.569 128.055,134.569 C 128.762,134.569 151.292,134.569 151.292,134.569 C 153.275,135.277 155.117,136.978 155.754,137.687 C 156.393,138.395 157.313,139.104 157.313,139.104 C 158.519,138.678 157.596,137.969 157.454,137.119 C 157.313,136.269 156.596,134.405 157.038,133.192 C 157.482,131.979 159.014,132.02 159.792,131.098 C 160.571,130.177 160.365,130.957 160.369,129.678 L 120.079,129.441 Z" stroke="none" fill="#fede58" stroke-width="0.25" fill-rule="nonzero" marker-start="none" marker-end="none"/>
     <path d="M 120.079,129.441 C 121.777,131.14 126.502,135.639 126.544,135.588 C 127.004,135.032 127.405,134.569 128.055,134.569 C 128.762,134.569 151.292,134.569 151.292,134.569 C 153.275,135.277 155.117,136.978 155.754,137.687 C 156.393,138.395 157.313,139.104 157.313,139.104 C 158.519,138.678 157.596,137.969 157.454,137.119 C 157.313,136.269 156.596,134.405 157.038,133.192 C 157.482,131.979 159.014,132.02 159.792,131.098 C 160.571,130.177 160.365,130.957 160.369,129.678" fill="none" stroke="#fede58" stroke-width="1"/>
     <path d="M 120.584,129.579 C 121.915,128.432 126.552,124.049 126.642,124.118 C 126.89,124.306 127.54,124.814 128.061,124.814 C 128.768,124.814 151.299,124.814 151.299,124.814 C 153.281,124.107 155.123,122.408 155.76,121.697 C 156.396,120.99 157.32,120.283 157.32,120.283 C 158.524,120.707 157.603,121.416 157.461,122.266 C 157.32,123.115 156.602,124.98 157.045,126.193 C 157.488,127.405 159.02,127.366 159.798,128.287 C 160.579,129.208 160.371,128.428 160.373,129.708 L 120.584,129.579 Z" stroke="none" fill="#fede58" stroke-width="0.25" fill-rule="nonzero" marker-start="none" marker-end="none"/>
     <path d="M 120.584,129.579 C 121.915,128.432 126.552,124.049 126.642,124.118 C 126.89,124.306 127.54,124.814 128.061,124.814 C 128.768,124.814 151.299,124.814 151.299,124.814 C 153.281,124.107 155.123,122.408 155.76,121.697 C 156.396,120.99 157.32,120.283 157.32,120.283 C 158.524,120.707 157.603,121.416 157.461,122.266 C 157.32,123.115 156.602,124.98 157.045,126.193 C 157.488,127.405 159.02,127.366 159.798,128.287 C 160.579,129.208 160.371,128.428 160.373,129.708" fill="none" stroke="#fede58" stroke-width="1"/>
     <path d="M 87.462,116.766 C 87.211,116.404 86.071,115.902 86.071,115.902 C 86.071,115.902 86.162,115.354 86.162,115.354 C 86.938,115.354 87.063,114.607 87.315,114.282 C 87.715,113.733 87.913,113.341 88.168,113.117 C 88.945,112.436 89.082,112.069 91.281,111.16 C 91.284,111.158 91.389,111.117 91.404,111.111 C 91.402,111.109 91.4,111.107 91.4,111.103 C 91.4,111.062 91.433,110.938 91.433,110.938 C 91.433,110.938 91.885,109.574 91.885,109.574 C 91.99,109.051 92.12,108.4 92.694,108.004 C 92.694,108.004 93.928,107.032 93.928,107.032 C 94.135,106.865 95.95,105.673 96.107,105.547 C 95.812,105.479 94.967,104.952 94.967,104.952 C 94.643,104.77 94.055,104.999 93.735,104.679 C 93.724,104.669 94.03,104.108 94.237,104.086 C 95.468,103.948 96.472,104.086 96.472,104.725 C 96.472,104.815 97.065,104.908 97.353,104.76 C 97.461,104.646 98.479,103.858 98.479,103.858 C 99.087,103.195 98.4,103.239 98.753,103.128 C 98.828,103.101 99.848,103.082 99.848,103.082 C 100.122,104.359 101.624,103.979 101.855,104.041 C 102.362,104.173 103.195,104.252 104,104.223 C 104,104.223 105.554,104.262 105.924,104.074 C 106.353,103.858 108.881,103.31 108.881,103.31 C 109.338,103.493 109.994,103.43 110.569,104.313 C 110.433,104.861 110.387,104.714 110.387,105.045 C 110.387,105.34 110.113,105.53 109.885,105.912 C 110.013,105.863 110.56,106.293 110.615,106.367 C 110.87,106.704 111.163,106.684 111.163,107.097 C 110.707,108.191 110.859,107.778 110.661,107.919 C 109.885,108.465 108.289,109.195 108.289,109.195 C 108.015,109.652 106.483,110.795 105.596,111.797 C 105.596,111.797 103.557,113.808 103.557,113.808 C 101.993,115.289 99.553,115.982 98.342,116.221 C 97.437,116.4 95.937,116.541 94.589,116.425 C 94.016,117.171 93.08,118.2 91.513,118.347 C 89.355,118.547 87.973,117.179 87.462,116.766 Z" stroke="none" fill="#fede58" stroke-width="0.25" fill-rule="nonzero" marker-start="none" marker-end="none"/>
     <path d="M 132.014,116.137 C 131.764,115.775 130.623,115.273 130.623,115.273 C 130.623,115.273 130.714,114.727 130.714,114.727 C 131.49,114.727 131.615,113.979 131.867,113.654 C 132.267,113.105 132.465,112.713 132.72,112.488 C 133.497,111.807 133.634,111.441 135.833,110.531 C 135.836,110.529 135.94,110.488 135.955,110.482 C 135.953,110.48 135.951,110.479 135.951,110.475 C 135.951,110.434 135.984,110.309 135.984,110.309 C 135.984,110.309 136.438,108.945 136.438,108.945 C 136.541,108.422 136.672,107.771 137.246,107.375 C 137.246,107.375 138.479,106.404 138.479,106.404 C 138.688,106.236 140.502,105.045 140.659,104.918 C 140.363,104.85 139.519,104.324 139.519,104.324 C 139.194,104.141 138.606,104.371 138.287,104.051 C 138.275,104.041 138.582,103.48 138.789,103.457 C 140.02,103.32 141.023,103.457 141.023,104.096 C 141.023,104.188 141.618,104.279 141.904,104.131 C 142.013,104.018 143.031,103.23 143.031,103.23 C 143.639,102.566 142.951,102.611 143.306,102.5 C 143.38,102.473 144.399,102.453 144.399,102.453 C 144.674,103.73 146.176,103.35 146.407,103.412 C 146.913,103.545 147.747,103.623 148.552,103.594 C 148.552,103.594 150.105,103.633 150.476,103.445 C 150.904,103.23 153.433,102.682 153.433,102.682 C 153.89,102.865 154.546,102.801 155.121,103.686 C 154.985,104.232 154.938,104.086 154.938,104.416 C 154.938,104.711 154.665,104.902 154.437,105.283 C 154.564,105.234 155.112,105.664 155.167,105.738 C 155.422,106.076 155.714,106.055 155.714,106.469 C 155.259,107.563 155.411,107.15 155.213,107.291 C 154.437,107.836 152.841,108.566 152.841,108.566 C 152.566,109.023 151.035,110.166 150.147,111.168 C 150.147,111.168 148.108,113.18 148.108,113.18 C 146.544,114.66 144.104,115.354 142.895,115.592 C 141.988,115.771 140.488,115.912 139.141,115.797 C 138.567,116.543 137.631,117.572 136.064,117.719 C 133.907,117.918 132.525,116.551 132.014,116.137 Z" stroke="none" fill="#fede58" stroke-width="0.25" fill-rule="nonzero" marker-start="none" marker-end="none"/>
     <path d="M 87.876,156.145 C 87.625,155.783 86.485,155.281 86.485,155.281 C 86.485,155.281 86.576,154.733 86.576,154.733 C 87.352,154.733 87.477,153.986 87.729,153.661 C 88.129,153.112 88.327,152.72 88.582,152.496 C 89.359,151.814 89.496,151.448 91.695,150.539 C 91.698,150.537 91.803,150.496 91.818,150.49 C 91.816,150.488 91.814,150.486 91.814,150.481 C 91.814,150.44 91.847,150.316 91.847,150.316 C 91.847,150.316 92.299,148.953 92.299,148.953 C 92.404,148.43 92.534,147.779 93.108,147.383 C 93.108,147.383 94.342,146.411 94.342,146.411 C 94.549,146.244 96.364,145.052 96.521,144.926 C 96.226,144.857 95.381,144.331 95.381,144.331 C 95.057,144.148 94.469,144.378 94.149,144.058 C 94.138,144.048 94.444,143.487 94.651,143.465 C 95.882,143.327 96.886,143.465 96.886,144.104 C 96.886,144.194 97.479,144.287 97.767,144.139 C 97.875,144.025 98.894,143.237 98.894,143.237 C 99.501,142.574 98.814,142.618 99.168,142.507 C 99.242,142.479 100.262,142.461 100.262,142.461 C 100.536,143.738 102.038,143.357 102.27,143.42 C 102.775,143.552 103.609,143.631 104.414,143.602 C 104.414,143.602 105.968,143.641 106.338,143.453 C 106.767,143.237 109.295,142.688 109.295,142.688 C 109.752,142.872 110.408,142.809 110.983,143.692 C 110.848,144.24 110.801,144.093 110.801,144.424 C 110.801,144.719 110.527,144.909 110.299,145.291 C 110.427,145.242 110.975,145.672 111.029,145.746 C 111.284,146.083 111.576,146.063 111.576,146.476 C 111.121,147.57 111.273,147.157 111.075,147.298 C 110.299,147.844 108.703,148.574 108.703,148.574 C 108.429,149.031 106.897,150.174 106.01,151.176 C 106.01,151.176 103.971,153.187 103.971,153.187 C 102.406,154.668 99.967,155.361 98.756,155.6 C 97.851,155.779 96.351,155.92 95.003,155.804 C 94.43,156.55 93.494,157.579 91.927,157.726 C 89.77,157.926 88.387,156.558 87.876,156.145 Z" stroke="none" fill="#fede58" stroke-width="0.25" fill-rule="nonzero" marker-start="none" marker-end="none"/>
     <path d="M 134.076,155.242 C 133.824,154.881 132.684,154.379 132.684,154.379 C 132.684,154.379 132.775,153.831 132.775,153.831 C 133.551,153.831 133.676,153.084 133.928,152.759 C 134.328,152.21 134.525,151.817 134.781,151.594 C 135.559,150.912 135.695,150.546 137.895,149.637 C 137.896,149.635 138.002,149.594 138.018,149.588 C 138.016,149.586 138.014,149.584 138.014,149.579 C 138.014,149.538 138.047,149.414 138.047,149.414 C 138.047,149.414 138.498,148.051 138.498,148.051 C 138.604,147.527 138.733,146.877 139.308,146.48 C 139.308,146.48 140.541,145.509 140.541,145.509 C 140.748,145.342 142.563,144.149 142.721,144.023 C 142.426,143.955 141.58,143.429 141.58,143.429 C 141.256,143.246 140.668,143.476 140.348,143.155 C 140.338,143.146 140.644,142.585 140.85,142.563 C 142.082,142.425 143.086,142.563 143.086,143.201 C 143.086,143.292 143.679,143.385 143.966,143.236 C 144.074,143.123 145.093,142.335 145.093,142.335 C 145.7,141.672 145.014,141.716 145.367,141.604 C 145.441,141.577 146.461,141.559 146.461,141.559 C 146.735,142.836 148.237,142.455 148.469,142.518 C 148.975,142.649 149.809,142.729 150.613,142.699 C 150.613,142.699 152.167,142.738 152.537,142.551 C 152.966,142.335 155.494,141.786 155.494,141.786 C 155.951,141.97 156.607,141.906 157.183,142.79 C 157.047,143.338 157,143.19 157,143.521 C 157,143.816 156.727,144.007 156.498,144.389 C 156.626,144.34 157.174,144.77 157.229,144.844 C 157.483,145.181 157.775,145.16 157.775,145.573 C 157.32,146.668 157.473,146.255 157.274,146.396 C 156.498,146.941 154.902,147.672 154.902,147.672 C 154.628,148.129 153.097,149.271 152.209,150.273 C 152.209,150.273 150.17,152.284 150.17,152.284 C 148.605,153.766 146.166,154.459 144.955,154.697 C 144.051,154.877 142.551,155.018 141.202,154.901 C 140.629,155.647 139.693,156.677 138.126,156.823 C 135.969,157.023 134.586,155.655 134.076,155.242 Z" stroke="none" fill="#fede58" stroke-width="0.25" fill-rule="nonzero" marker-start="none" marker-end="none"/>
     <path d="M 109.251,85.166 C 109,84.805 107.86,84.303 107.86,84.303 C 107.86,84.303 107.951,83.755 107.951,83.755 C 108.727,83.755 108.852,83.008 109.104,82.683 C 109.504,82.134 109.702,81.741 109.957,81.518 C 110.734,80.836 110.871,80.47 113.07,79.561 C 113.073,79.559 113.178,79.518 113.193,79.512 C 113.191,79.51 113.189,79.508 113.189,79.503 C 113.189,79.462 113.222,79.338 113.222,79.338 C 113.222,79.338 113.674,77.975 113.674,77.975 C 113.779,77.451 113.909,76.801 114.483,76.404 C 114.483,76.404 115.717,75.433 115.717,75.433 C 115.924,75.266 117.739,74.073 117.896,73.947 C 117.601,73.879 116.756,73.353 116.756,73.353 C 116.432,73.17 115.844,73.399 115.524,73.079 C 115.513,73.069 115.819,72.509 116.026,72.486 C 117.257,72.349 118.261,72.486 118.261,73.125 C 118.261,73.216 118.854,73.309 119.142,73.159 C 119.25,73.047 120.269,72.259 120.269,72.259 C 120.876,71.596 120.189,71.64 120.543,71.528 C 120.617,71.501 121.637,71.482 121.637,71.482 C 121.911,72.76 123.413,72.379 123.645,72.441 C 124.15,72.573 124.984,72.652 125.789,72.623 C 125.789,72.623 127.343,72.662 127.713,72.475 C 128.142,72.259 130.67,71.71 130.67,71.71 C 131.127,71.894 131.783,71.83 132.358,72.714 C 132.223,73.262 132.176,73.114 132.176,73.445 C 132.176,73.74 131.902,73.931 131.674,74.313 C 131.802,74.264 132.35,74.693 132.404,74.768 C 132.659,75.104 132.951,75.084 132.951,75.497 C 132.496,76.592 132.648,76.179 132.45,76.319 C 131.674,76.865 130.078,77.596 130.078,77.596 C 129.804,78.053 128.272,79.195 127.385,80.197 C 127.385,80.197 125.346,82.208 125.346,82.208 C 123.781,83.689 121.342,84.383 120.131,84.621 C 119.227,84.801 117.726,84.941 116.378,84.825 C 115.805,85.571 114.869,86.601 113.302,86.747 C 111.145,86.947 109.762,85.579 109.251,85.166 Z" stroke="none" fill="#fede58" stroke-width="0.25" fill-rule="nonzero" marker-start="none" marker-end="none"/>
    </g>
   </g>
   <g id="Scroll">
    <path d="M 45.925,56.637 C 42.479,51.857 38.937,45.551 38.05,40.512 C 36.858,36.422 39.842,33.142 43.675,31.137 C 52.192,22.32 65.789,21.35 76.271,18.005 C 79.56,16.956 80.85,13.084 83.8,11.637 C 90.584,8.309 98.469,7.807 105.971,6.905 C 112.774,6.087 119.719,6.222 126.52,6.305 C 133.141,6.386 139.88,6.998 146.425,8.262 C 152.561,9.447 160.389,8.741 164.425,13.512 C 165.806,15.145 163.745,18.296 165.175,19.887 C 166.898,21.805 169.897,20.992 172.72,21.605 C 176.613,22.451 180.417,24.526 184.3,25.887 C 188.863,27.487 193.881,28.65 198.07,30.455 C 199.865,31.228 201.408,31.797 202.675,33.012 C 203.941,34.226 205.235,36.029 205.42,37.505 C 205.579,38.776 205.11,40.791 204.52,42.305 C 202.392,47.766 201.451,54.873 197.02,58.355 C 195.213,59.775 191.88,59.589 189.67,58.955 C 186.534,58.055 182.079,56.055 180.82,53.705 C 179.813,51.824 184.02,50.584 183.55,48.762 C 182.75,45.664 178.342,44.958 175.42,43.655 C 167.784,40.249 158.952,40.133 151.3,36.762 C 149.554,35.993 147.178,35.514 146.425,33.762 C 145.819,32.352 148.473,30.506 147.37,29.255 C 145.901,27.59 143.726,28.306 140.62,28.055 C 135.2,27.617 129.119,27.173 123.925,27.012 C 119.429,26.873 116.434,27.693 111.371,27.455 C 106.95,27.247 101.441,26.51 98.771,28.055 C 98.198,28.387 97.601,28.322 98.172,29.001 C 98.654,29.574 99.157,30.087 99.175,30.762 C 99.227,32.717 98.144,34.92 96.55,36.012 C 92.604,38.715 79.364,37.306 70.675,40.512 C 66.328,42.116 59.394,42.591 56.425,45.762 C 55.401,46.856 58.492,47.956 59.425,49.137 C 60.37,50.334 62.324,51.387 62.05,52.887 C 61.452,56.161 57.073,57.909 53.8,58.512 C 51.147,59.001 48.031,58.323 45.925,56.637 Z" stroke="#ffffff" stroke-linejoin="miter" stroke-width="1" fill="#ffffff" marker-start="none" marker-end="none" stroke-miterlimit="79.8403193612775"/>
    <g id="Group_1" stroke-linejoin="miter" stroke="none" stroke-width="1" fill="#000000" stroke-miterlimit="79.8403193612775">
     <path d="M 46.587,59.519 C 44.446,58.481 43.128,56.653 42.807,55.393 L 42.951,55.783 L 37.12,42.561 L 36.953,42.005 C 36.856,41.763 34.278,36.906 39.589,32.033 C 44.898,27.163 50.668,24.917 56.777,22.537 L 58.928,21.695 C 63.928,19.72 69.568,18.265 73.686,17.202 L 77.591,16.145 C 78.106,15.982 78.88,15.487 79.304,14.163 C 79.738,12.804 80.413,10.995 82.448,10.218 C 86.165,8.797 93.166,7.311 97.196,6.706 C 103.832,5.708 114.661,4.146 125.062,5.017 L 127.802,5.175 C 143.075,5.625 147.078,6.224 157.679,8.981 C 164.597,10.78 167.062,12.461 166.963,15.824 C 166.947,16.365 166.865,16.95 166.724,17.587 C 166.724,17.587 167.302,19.088 167.302,19.089 C 167.524,19.146 166.994,19.114 169.111,19.573 L 177.55,21.686 C 180.141,22.293 201.203,31.039 202.355,31.684 C 206.301,33.893 206.679,35.743 207.077,39.92 L 207.126,40.435 L 200.099,56.539 C 198.664,59.749 196.429,59.989 194.797,60.163 L 194.181,60.235 C 190.587,60.725 187.158,59.705 182.718,56.827 C 180.824,55.598 179.613,54.537 179.429,53.049 C 179.41,52.894 179.403,52.742 179.408,52.597 C 179.444,51.358 180.273,50.47 180.951,49.741 C 180.951,49.741 181.557,49.04 181.771,48.792 C 181.729,48.41 181.391,47.697 181.142,47.428 C 178.645,45.86 171.201,42.797 165.4,41.654 L 162.649,41.126 C 157.535,40.156 153.119,39.319 148.392,37.186 C 146.413,36.292 144.463,35.255 144.244,33.291 C 144.228,33.144 144.223,32.999 144.227,32.859 C 144.258,31.811 144.85,30.95 145.606,30.201 C 145.485,30.179 145.404,30.158 145.267,30.137 C 142.098,29.627 127.086,28.584 122.668,28.454 C 118.931,28.344 107.747,28.828 101.529,29.334 C 101.568,29.539 101.663,29.735 101.657,29.947 C 101.627,30.966 101.117,32.056 100.539,33.173 C 98.753,36.618 97.503,37.174 94.87,37.701 L 92.569,38.255 C 88.459,39.491 83.656,40.329 79.043,40.612 C 75.272,40.842 65.292,44.041 60.158,46.473 C 61.66,46.904 63.194,47.629 63.972,49.21 C 64.29,49.858 64.442,50.545 64.422,51.242 C 64.408,51.712 64.316,52.188 64.145,52.66 C 63.123,55.486 59.386,57.65 56.43,58.968 C 51.704,61.075 48.468,60.431 46.587,59.519 M 48.087,53.529 C 47.883,54.257 48.287,55.229 48.766,55.43 C 50.349,56.092 52.291,56.434 54.802,55.316 C 58.436,53.695 60.08,52.139 60.383,51.3 C 60.411,51.225 60.422,51.169 60.424,51.125 C 60.425,51.061 60.406,51.02 60.384,50.977 C 60.105,50.411 58.212,50.073 57.301,49.91 C 55.797,49.641 54.091,49.337 53.726,47.651 C 53.684,47.453 53.667,47.265 53.672,47.083 C 53.713,45.705 55.016,44.807 55.544,44.443 C 59.636,41.622 73.543,36.942 78.798,36.618 C 83.112,36.355 87.593,35.574 91.416,34.424 L 94.086,33.778 C 95.771,33.442 95.908,33.414 96.987,31.332 C 97.09,31.134 97.16,30.987 97.233,30.834 C 96.912,30.743 96.564,30.626 96.204,30.447 L 95.154,30.041 C 93.674,29.563 93.352,28.671 93.373,27.943 C 93.375,27.877 93.38,27.814 93.386,27.752 C 93.571,26.071 94.979,25.937 96.609,25.783 L 98.987,25.547 C 104.578,24.958 118.368,24.325 122.786,24.455 C 126.937,24.577 142.338,25.615 145.901,26.187 C 148.027,26.528 150.264,27.133 150.737,29.041 C 150.79,29.256 150.823,29.496 150.815,29.758 C 150.804,30.144 150.703,30.575 150.446,31.025 C 150.2,31.452 154.345,31.948 154.802,32.39 C 155.038,32.617 155.494,33.251 154.754,33.352 C 153.244,32.951 152.669,32.778 151.984,32.84 C 151.077,32.922 149.841,33.289 150.365,33.571 C 154.513,35.803 158.531,36.274 163.395,37.196 L 166.174,37.73 C 172.575,38.991 180.645,42.351 183.387,44.11 C 184.41,44.766 185.429,46.49 185.708,48.035 C 185.772,48.394 185.794,48.723 185.786,49.024 C 185.77,49.538 186.47,49.927 187.158,50.028 C 187.373,50.096 188.232,50.429 189.178,50.209 C 189.928,50.035 189.22,47.352 189.875,47.189 C 190.576,47.016 192.15,48.431 192.459,48.887 C 192.459,48.887 192.419,50.264 192.287,50.624 C 191.815,51.918 191.936,51.307 191.847,51.828 C 191.701,52.675 192.56,52.415 192.014,53.048 C 191.468,53.681 190.725,52.768 189.162,52.154 C 187.728,51.592 186.143,51.417 186.143,51.417 C 186.143,51.417 185.363,52.299 185.305,52.366 C 185.544,52.561 184.655,52.826 184.894,53.471 C 185.582,55.332 191.077,56.621 193.642,56.273 L 194.371,56.186 C 195.708,56.043 195.95,56.016 196.445,54.907 C 196.445,54.907 201.94,42.321 203.045,39.789 C 202.792,37.238 201.262,35.857 198.785,34.469 C 197.238,33.604 180.286,26.71 176.013,25.586 C 176.031,25.591 166.73,22.927 166.73,22.927 C 165.867,22.626 164.617,22.491 163.606,21.504 C 163.449,21.351 162.522,22.482 161.854,26.455 C 161.091,27.822 160.25,27.687 160.171,27.506 C 160.033,27.189 160.063,23.766 160.855,21.423 C 162.359,20.228 162.688,19.155 162.723,18.771 C 162.723,18.77 162.817,16.722 162.817,16.722 C 162.91,16.305 162.423,15.514 162.069,15.133 C 161.607,14.637 160.981,13.971 156.672,12.851 C 146.46,10.195 141.726,9.348 127.563,8.839 L 124.86,8.713 C 109.985,7.798 99.958,10.276 97.632,10.666 C 93.895,11.292 87.455,12.737 84.08,14.029 C 83.842,14.119 83.26,15.217 83.063,15.834 C 82.595,17.299 81.365,19.144 78.8,19.958 L 74.684,21.075 C 70.668,22.112 65.167,23.532 60.399,25.416 L 58.228,26.265 C 52.229,28.601 47.05,30.619 42.293,34.982 C 40.547,36.583 40.463,38.104 40.426,39.354 C 40.397,40.344 40.98,41.388 41.049,41.575 C 41.144,41.767 44.731,50.343 46.161,53.246 C 46.337,53.606 47.494,51.548 48.178,50.458 C 48.591,49.797 49.487,49.334 50.143,49.184 C 50.799,49.036 51.101,48.997 51.111,49.029 C 51.386,50.597 47.987,50.727 48.087,53.529 Z" marker-start="none" marker-end="none"/>
    </g>
    <g id="Group_2" font-size="19" font-weight="bold" font-family="Arial Narrow" stroke-linejoin="miter" stroke="none" stroke-width="1" fill="#000000" stroke-miterlimit="79.8403193612775">
     <text xml:space="preserve" transform="matrix(0.260803 0.965393 0.965393 -0.260803 25.956 145.766)"><tspan x="0" y="0">S</tspan></text>
     <text xml:space="preserve" transform="matrix(0.353897 0.935303 0.935303 -0.353897 28.536 155.326)"><tspan x="0" y="0">T</tspan></text>
     <text xml:space="preserve" transform="matrix(0.399399 0.916794 0.916794 -0.399399 31.144 162.191)"><tspan x="0" y="0">.</tspan></text>
     <text xml:space="preserve" transform="matrix(0.498199 0.867096 0.867096 -0.498199 34.244 169.255)"><tspan x="0" y="0">E</tspan></text>
     <text xml:space="preserve" transform="matrix(0.587097 0.809494 0.809494 -0.587097 39.148 177.886)"><tspan x="0" y="0">D</tspan></text>
     <text xml:space="preserve" transform="matrix(0.685394 0.728104 0.728104 -0.685394 45.374 186.706)"><tspan x="0" y="0">W</tspan></text>
     <text xml:space="preserve" transform="matrix(0.766998 0.641693 0.641693 -0.766998 54.572 196.441)"><tspan x="0" y="0">A</tspan></text>
     <text xml:space="preserve" transform="matrix(0.832794 0.553604 0.553604 -0.832794 62.814 203.371)"><tspan x="0" y="0">R</tspan></text>
     <text xml:space="preserve" transform="matrix(0.888794 0.458206 0.458206 -0.888794 71.776 209.359)"><tspan x="0" y="0">D</tspan></text>
     <text xml:space="preserve" transform="matrix(0.932693 0.360794 0.360794 -0.932693 81.373 214.308)"><tspan x="0" y="0">S</tspan></text>
     <text xml:space="preserve" transform="matrix(0.975403 0.220398 0.220398 -0.975403 94.305 219.077)"><tspan x="0" y="0">A</tspan></text>
     <text xml:space="preserve" transform="matrix(0.989197 0.146393 0.146393 -0.989197 104.821 221.337)"><tspan x="0" y="0">.</tspan></text>
     <text xml:space="preserve" transform="matrix(0.997406 0.0718994 0.0718994 -0.997406 108.627 222.049)"><tspan x="0" y="0">B</tspan></text>
     <text xml:space="preserve" transform="matrix(0.999893 -0.0162048 -0.0162048 -0.999893 119.373 222.744)"><tspan x="0" y="0">.</tspan></text>
     <text xml:space="preserve" transform="matrix(0.997101 -0.0758972 -0.0758972 -0.997101 123.23 222.852)"><tspan x="0" y="0">C</tspan></text>
     <text xml:space="preserve" transform="matrix(0.988602 -0.150299 -0.150299 -0.988602 133.957 221.923)"><tspan x="0" y="0">.</tspan></text>
     <text xml:space="preserve" transform="matrix(0.967102 -0.254501 -0.254501 -0.967102 141.59 220.721)"><tspan x="0" y="0">F</tspan></text>
     <text xml:space="preserve" transform="matrix(0.937393 -0.348206 -0.348206 -0.937393 150.379 218.453)"><tspan x="0" y="0">E</tspan></text>
     <text xml:space="preserve" transform="matrix(0.899002 -0.438004 -0.438004 -0.899002 159.67 215.004)"><tspan x="0" y="0">L</tspan></text>
     <text xml:space="preserve" transform="matrix(0.854401 -0.519608 -0.519608 -0.854401 167.809 211.062)"><tspan x="0" y="0">L</tspan></text>
     <text xml:space="preserve" transform="matrix(0.791901 -0.610703 -0.610703 -0.791901 174.944 206.975)"><tspan x="0" y="0">W</tspan></text>
     <text xml:space="preserve" transform="matrix(0.713898 -0.700195 -0.700195 -0.713898 185.522 198.787)"><tspan x="0" y="0">A</tspan></text>
     <text xml:space="preserve" transform="matrix(0.639496 -0.768799 -0.768799 -0.639496 193.209 191.22)"><tspan x="0" y="0">L</tspan></text>
     <text xml:space="preserve" transform="matrix(0.558594 -0.829498 -0.829498 -0.558594 199.045 184.309)"><tspan x="0" y="0">K</tspan></text>
     <text xml:space="preserve" transform="matrix(0.4673 -0.884094 -0.884094 -0.4673 205.077 175.357)"><tspan x="0" y="0">E</tspan></text>
     <text xml:space="preserve" transform="matrix(0.370407 -0.928894 -0.928894 -0.370407 209.762 166.593)"><tspan x="0" y="0">R</tspan></text>
     <text xml:space="preserve" transform="matrix(0.269104 -0.963104 -0.963104 -0.269104 213.756 156.583)"><tspan x="0" y="0">S</tspan></text>
    </g>
    <g id="Group_3">
     <path d="M 44.8,37.512 C 54.364,30.079 64.759,25.14 76.3,23.637" fill="none" stroke="#ffffff" stroke-width="0.5" stroke-linecap="round" stroke-linejoin="round" stroke-miterlimit="79.8403193612775"/>
     <g id="Group_4" fill-rule="nonzero" stroke-linejoin="miter" stroke="none" stroke-width="1" fill="#000000" stroke-miterlimit="79.8403193612775">
      <path d="M 45.426,36.955 L 51.2,45.146 L 53.379,43.61 C 54.191,43.038 54.694,42.624 54.889,42.37 C 55.198,41.962 55.336,41.461 55.304,40.865 C 55.271,40.269 55.025,39.645 54.565,38.993 C 54.148,38.401 53.686,37.983 53.181,37.74 C 52.675,37.497 52.197,37.413 51.748,37.488 C 51.298,37.562 50.664,37.888 49.844,38.465 L 48.956,39.092 L 46.778,36.002 L 45.426,36.955 Z M 51.575,42.807 L 49.937,40.483 L 50.685,39.955 C 51.188,39.601 51.555,39.395 51.785,39.338 C 52.016,39.282 52.254,39.305 52.499,39.408 C 52.745,39.511 52.962,39.697 53.151,39.965 C 53.343,40.237 53.445,40.508 53.457,40.778 C 53.469,41.048 53.41,41.277 53.279,41.464 C 53.149,41.65 52.8,41.943 52.234,42.342 L 51.575,42.807 Z" marker-start="none" marker-end="none"/>
      <path d="M 52.837,31.993 L 51.485,32.81 L 55.237,39.024 L 56.49,38.268 L 55.956,37.384 C 56.421,37.668 56.778,37.826 57.029,37.858 C 57.28,37.891 57.517,37.84 57.739,37.705 C 58.047,37.519 58.279,37.238 58.435,36.862 L 57.148,35.682 C 57.034,35.996 56.878,36.213 56.679,36.333 C 56.492,36.446 56.285,36.476 56.059,36.424 C 55.833,36.371 55.579,36.183 55.298,35.857 C 55.016,35.532 54.582,34.884 53.996,33.913 L 52.837,31.993 Z" marker-start="none" marker-end="none"/>
      <path d="M 56.506,34.109 C 56.823,34.745 57.239,35.261 57.752,35.657 C 58.266,36.053 58.791,36.279 59.329,36.337 C 59.867,36.395 60.391,36.296 60.901,36.042 C 61.757,35.614 62.263,34.943 62.417,34.028 C 62.572,33.113 62.425,32.207 61.978,31.31 C 61.644,30.641 61.215,30.101 60.692,29.69 C 60.169,29.279 59.632,29.041 59.083,28.977 C 58.534,28.912 58.012,29.003 57.519,29.249 C 56.728,29.644 56.222,30.273 56.001,31.137 C 55.78,32.001 55.949,32.992 56.506,34.109 Z M 57.904,33.297 C 57.577,32.64 57.457,32.08 57.546,31.615 C 57.635,31.151 57.861,30.828 58.224,30.647 C 58.579,30.47 58.967,30.487 59.389,30.7 C 59.81,30.912 60.186,31.348 60.516,32.009 C 60.837,32.653 60.954,33.209 60.866,33.675 C 60.778,34.142 60.555,34.465 60.196,34.644 C 59.841,34.821 59.452,34.804 59.028,34.593 C 58.604,34.381 58.23,33.949 57.904,33.297 Z" marker-start="none" marker-end="none"/>
      <path d="M 66.862,36.139 L 69.765,35.278 C 70.499,35.06 71.028,34.814 71.353,34.539 C 71.678,34.265 71.94,33.886 72.139,33.404 C 72.339,32.922 72.436,32.344 72.431,31.67 C 72.426,30.997 72.286,30.199 72.013,29.277 C 71.767,28.447 71.459,27.753 71.089,27.195 C 70.719,26.637 70.336,26.222 69.942,25.949 C 69.547,25.676 69.119,25.51 68.656,25.45 C 68.194,25.389 67.642,25.455 66.999,25.645 L 64.011,26.532 L 66.862,36.139 Z M 67.965,34.043 L 66.077,27.68 L 67.27,27.326 C 67.781,27.175 68.166,27.113 68.424,27.141 C 68.682,27.169 68.913,27.258 69.117,27.409 C 69.321,27.56 69.533,27.831 69.753,28.222 C 69.974,28.613 70.186,29.152 70.39,29.838 C 70.601,30.55 70.718,31.126 70.742,31.565 C 70.765,32.006 70.708,32.374 70.571,32.671 C 70.433,32.969 70.227,33.199 69.952,33.361 C 69.746,33.484 69.324,33.64 68.686,33.83 L 67.965,34.043 Z" marker-start="none" marker-end="none"/>
      <path d="M 75.568,26.051 L 77.053,25.459 C 76.718,24.778 76.303,24.303 75.805,24.033 C 75.308,23.763 74.748,23.683 74.124,23.795 C 73.258,23.949 72.641,24.358 72.274,25.02 C 71.837,25.793 71.727,26.784 71.943,27.996 C 72.156,29.189 72.607,30.095 73.296,30.713 C 73.88,31.233 74.548,31.427 75.302,31.292 C 76.141,31.142 76.743,30.716 77.108,30.012 C 77.529,29.205 77.616,28.111 77.37,26.729 L 77.324,26.515 L 73.441,27.208 C 73.35,26.641 73.398,26.181 73.588,25.828 C 73.777,25.474 74.044,25.267 74.39,25.205 C 74.888,25.117 75.281,25.398 75.568,26.051 Z M 75.997,27.946 C 76.082,28.505 76.038,28.945 75.864,29.265 C 75.69,29.585 75.448,29.773 75.138,29.828 C 74.811,29.887 74.508,29.79 74.232,29.539 C 73.951,29.283 73.765,28.891 73.675,28.36 L 75.997,27.946 Z" marker-start="none" marker-end="none"/>
      <path d="M 77.951,27.186 C 78.043,27.891 78.267,28.514 78.623,29.056 C 78.978,29.598 79.401,29.984 79.89,30.215 C 80.38,30.445 80.907,30.524 81.472,30.45 C 82.421,30.326 83.118,29.858 83.564,29.043 C 84.009,28.23 84.167,27.325 84.038,26.331 C 83.941,25.59 83.713,24.94 83.353,24.38 C 82.993,23.82 82.564,23.42 82.066,23.179 C 81.568,22.938 81.046,22.854 80.499,22.925 C 79.622,23.039 78.938,23.468 78.447,24.212 C 77.955,24.956 77.79,25.948 77.951,27.186 Z M 79.538,26.876 C 79.443,26.148 79.514,25.58 79.75,25.17 C 79.986,24.76 80.305,24.529 80.708,24.476 C 81.101,24.425 81.462,24.569 81.791,24.907 C 82.12,25.246 82.332,25.781 82.428,26.513 C 82.521,27.227 82.449,27.79 82.213,28.203 C 81.977,28.615 81.661,28.847 81.263,28.899 C 80.87,28.95 80.507,28.806 80.176,28.468 C 79.845,28.129 79.632,27.599 79.538,26.876 Z" marker-start="none" marker-end="none"/>
     </g>
    </g>
    <g id="Group_5">
     <path d="M 87.187,16.219 C 110.988,8.498 136.21,10.294 163.675,17.555" fill="none" stroke-width="0.5" stroke-linecap="round" stroke-linejoin="round" stroke="#ffffff" stroke-miterlimit="79.8403193612775"/>
     <g id="Group_6" fill-rule="nonzero" stroke-linejoin="miter" stroke="none" stroke-width="1" fill="#000000" stroke-miterlimit="79.8403193612775">
      <path d="M 87.966,15.913 L 90.659,25.566 L 93.227,24.849 C 94.183,24.582 94.796,24.362 95.065,24.188 C 95.493,23.907 95.791,23.481 95.96,22.909 C 96.129,22.336 96.107,21.666 95.893,20.898 C 95.698,20.2 95.403,19.652 95.008,19.253 C 94.613,18.855 94.192,18.615 93.743,18.535 C 93.295,18.454 92.588,18.548 91.622,18.817 L 90.575,19.109 L 89.559,15.468 L 87.966,15.913 Z M 91.797,23.488 L 91.032,20.749 L 91.915,20.503 C 92.507,20.338 92.922,20.267 93.158,20.291 C 93.394,20.315 93.61,20.417 93.807,20.596 C 94.004,20.775 94.146,21.023 94.235,21.339 C 94.324,21.659 94.329,21.949 94.25,22.208 C 94.171,22.466 94.038,22.662 93.853,22.794 C 93.667,22.926 93.241,23.085 92.573,23.271 L 91.797,23.488 Z" marker-start="none" marker-end="none"/>
      <path d="M 96.598,13.67 L 95.055,14.005 L 96.596,21.1 L 98.026,20.789 L 97.806,19.78 C 98.154,20.199 98.441,20.464 98.668,20.576 C 98.895,20.687 99.136,20.716 99.39,20.661 C 99.742,20.584 100.052,20.393 100.321,20.087 L 99.485,18.555 C 99.276,18.815 99.057,18.97 98.83,19.019 C 98.617,19.066 98.411,19.027 98.214,18.905 C 98.018,18.782 97.838,18.521 97.677,18.123 C 97.516,17.724 97.315,16.97 97.074,15.861 L 96.598,13.67 Z" marker-start="none" marker-end="none"/>
      <path d="M 99.473,16.823 C 99.585,17.525 99.827,18.142 100.197,18.673 C 100.569,19.205 101.002,19.579 101.498,19.795 C 101.994,20.011 102.523,20.074 103.086,19.984 C 104.031,19.834 104.714,19.345 105.136,18.518 C 105.558,17.692 105.69,16.783 105.532,15.793 C 105.414,15.055 105.167,14.412 104.791,13.863 C 104.415,13.314 103.974,12.926 103.47,12.699 C 102.965,12.473 102.441,12.403 101.896,12.49 C 101.023,12.63 100.352,13.078 99.882,13.836 C 99.412,14.594 99.276,15.59 99.473,16.823 Z M 101.05,16.467 C 100.934,15.743 100.989,15.172 101.213,14.756 C 101.437,14.339 101.749,14.099 102.15,14.035 C 102.541,13.973 102.906,14.106 103.245,14.435 C 103.584,14.764 103.811,15.293 103.928,16.022 C 104.041,16.733 103.986,17.298 103.762,17.717 C 103.538,18.135 103.228,18.376 102.832,18.44 C 102.441,18.502 102.074,18.369 101.734,18.04 C 101.393,17.712 101.165,17.187 101.05,16.467 Z" marker-start="none" marker-end="none"/>
      <path d="M 108.894,11.713 L 109.621,21.708 L 113.105,21.455 C 113.996,21.39 114.625,21.254 114.994,21.047 C 115.363,20.84 115.654,20.506 115.867,20.045 C 116.08,19.584 116.165,19.044 116.12,18.426 C 116.063,17.644 115.829,17.028 115.42,16.578 C 115.01,16.128 114.455,15.867 113.755,15.794 C 114.091,15.514 114.364,15.214 114.574,14.895 C 114.784,14.576 115.061,14.011 115.404,13.2 L 116.257,11.178 L 114.287,11.321 L 113.245,13.584 C 112.87,14.401 112.613,14.914 112.473,15.123 C 112.333,15.332 112.179,15.481 112.012,15.568 C 111.845,15.656 111.57,15.714 111.188,15.741 L 110.847,15.766 L 110.544,11.594 L 108.894,11.713 Z M 110.963,17.361 L 112.191,17.272 C 112.941,17.218 113.42,17.216 113.63,17.267 C 113.839,17.318 114.014,17.439 114.156,17.63 C 114.298,17.82 114.381,18.082 114.405,18.413 C 114.428,18.732 114.383,18.992 114.27,19.194 C 114.157,19.397 113.994,19.542 113.781,19.631 C 113.63,19.692 113.184,19.75 112.443,19.803 L 111.148,19.898 L 110.963,17.361 Z" marker-start="none" marker-end="none"/>
      <path d="M 120.393,13.51 L 121.954,13.169 C 121.736,12.443 121.403,11.906 120.957,11.558 C 120.51,11.21 119.97,11.04 119.337,11.048 C 118.458,11.059 117.782,11.361 117.311,11.955 C 116.754,12.645 116.483,13.605 116.498,14.836 C 116.513,16.048 116.81,17.015 117.388,17.737 C 117.879,18.347 118.507,18.647 119.272,18.637 C 120.125,18.627 120.788,18.304 121.264,17.669 C 121.811,16.943 122.076,15.878 122.059,14.474 L 122.049,14.255 L 118.105,14.303 C 118.107,13.729 118.231,13.283 118.475,12.966 C 118.72,12.648 119.017,12.488 119.368,12.483 C 119.874,12.477 120.216,12.819 120.393,13.51 Z M 120.505,15.45 C 120.498,16.015 120.383,16.442 120.158,16.729 C 119.934,17.017 119.665,17.163 119.35,17.166 C 119.018,17.17 118.735,17.026 118.504,16.732 C 118.268,16.434 118.149,16.017 118.147,15.479 L 120.505,15.45 Z" marker-start="none" marker-end="none"/>
      <path d="M 122.93,10.729 L 124.745,10.544 C 124.784,10.281 124.876,10.097 125.02,9.992 C 125.164,9.886 125.386,9.841 125.686,9.854 C 126.032,9.87 126.31,9.939 126.519,10.063 C 126.665,10.152 126.775,10.293 126.848,10.488 C 126.922,10.683 126.948,11.022 126.926,11.505 L 126.878,12.563 C 126.659,12.161 126.406,11.855 126.119,11.646 C 125.831,11.437 125.508,11.324 125.149,11.308 C 124.488,11.278 123.92,11.551 123.442,12.127 C 122.892,12.787 122.591,13.7 122.539,14.865 C 122.483,16.103 122.685,17.049 123.146,17.701 C 123.607,18.354 124.186,18.696 124.883,18.727 C 125.251,18.744 125.592,18.661 125.903,18.479 C 126.215,18.297 126.498,18.013 126.752,17.628 L 126.707,18.645 L 128.182,18.712 L 128.475,12.204 C 128.522,11.161 128.46,10.401 128.29,9.924 C 128.12,9.446 127.841,9.079 127.454,8.822 C 127.066,8.565 126.52,8.42 125.814,8.389 C 125.163,8.359 124.638,8.422 124.238,8.578 C 123.839,8.733 123.528,8.978 123.305,9.312 C 123.083,9.647 122.961,10.039 122.941,10.49 L 122.93,10.729 Z M 124.145,15.047 C 124.18,14.273 124.33,13.714 124.594,13.37 C 124.858,13.026 125.165,12.862 125.516,12.878 C 125.894,12.895 126.209,13.089 126.461,13.461 C 126.714,13.833 126.823,14.385 126.79,15.118 C 126.756,15.874 126.602,16.427 126.329,16.777 C 126.055,17.128 125.73,17.294 125.352,17.277 C 124.978,17.26 124.676,17.069 124.444,16.703 C 124.211,16.336 124.112,15.784 124.145,15.047 Z" marker-start="none" marker-end="none"/>
      <path d="M 129.177,19.791 L 129.037,21.563 L 130.611,21.687 L 130.751,19.915 L 129.177,19.791 Z M 129.824,11.573 L 129.254,18.81 L 130.828,18.934 L 131.398,11.697 L 129.824,11.573 Z" marker-start="none" marker-end="none"/>
      <path d="M 138.149,12.401 L 136.58,12.224 L 136.165,15.906 C 136.082,16.644 135.997,17.132 135.911,17.37 C 135.824,17.608 135.693,17.784 135.517,17.897 C 135.342,18.01 135.152,18.055 134.948,18.032 C 134.686,18.002 134.458,17.891 134.264,17.697 C 134.07,17.503 133.947,17.252 133.895,16.943 C 133.842,16.635 133.863,16.066 133.957,15.237 L 134.325,11.97 L 132.756,11.793 L 131.943,19.007 L 133.396,19.171 L 133.516,18.111 C 133.728,18.548 133.984,18.886 134.285,19.127 C 134.586,19.367 134.933,19.509 135.327,19.554 C 135.785,19.605 136.184,19.53 136.526,19.328 C 136.867,19.125 137.119,18.844 137.281,18.484 C 137.443,18.124 137.564,17.591 137.644,16.884 L 138.149,12.401 Z" marker-start="none" marker-end="none"/>
      <path d="M 139.891,17.748 L 138.431,17.841 C 138.49,18.592 138.692,19.157 139.037,19.536 C 139.382,19.914 139.924,20.16 140.662,20.274 C 141.32,20.376 141.837,20.361 142.212,20.23 C 142.587,20.099 142.874,19.886 143.071,19.591 C 143.269,19.297 143.432,18.731 143.562,17.893 L 143.89,15.675 C 143.986,15.053 144.083,14.595 144.179,14.298 C 144.276,14.002 144.418,13.693 144.606,13.371 L 143.065,13.134 L 142.742,13.886 C 142.525,13.53 142.276,13.249 141.996,13.045 C 141.717,12.84 141.406,12.711 141.064,12.659 C 140.492,12.57 139.993,12.69 139.569,13.019 C 139.145,13.348 138.883,13.832 138.785,14.472 C 138.722,14.877 138.742,15.242 138.844,15.567 C 138.946,15.892 139.118,16.165 139.361,16.387 C 139.603,16.608 140.011,16.835 140.584,17.067 C 141.279,17.345 141.757,17.577 142.018,17.765 C 141.957,18.162 141.889,18.418 141.813,18.533 C 141.738,18.648 141.619,18.733 141.456,18.789 C 141.293,18.844 141.074,18.851 140.799,18.808 C 140.52,18.765 140.31,18.668 140.169,18.518 C 140.029,18.367 139.936,18.11 139.891,17.748 Z M 142.209,16.529 C 142.024,16.417 141.73,16.275 141.327,16.102 C 140.865,15.902 140.571,15.714 140.446,15.537 C 140.321,15.362 140.277,15.152 140.315,14.909 C 140.357,14.634 140.475,14.416 140.669,14.254 C 140.862,14.093 141.082,14.031 141.33,14.069 C 141.551,14.103 141.758,14.213 141.95,14.397 C 142.143,14.581 142.265,14.783 142.317,15.003 C 142.368,15.223 142.352,15.606 142.268,16.151 L 142.209,16.529 Z" marker-start="none" marker-end="none"/>
      <path d="M 151.416,17.01 L 153.014,16.996 C 152.949,16.24 152.733,15.647 152.367,15.215 C 152.002,14.783 151.508,14.506 150.886,14.384 C 150.023,14.215 149.3,14.372 148.718,14.857 C 148.031,15.419 147.57,16.304 147.333,17.511 C 147.099,18.701 147.192,19.708 147.61,20.533 C 147.966,21.23 148.519,21.652 149.27,21.8 C 150.107,21.964 150.822,21.784 151.417,21.26 C 152.102,20.66 152.579,19.672 152.849,18.295 L 152.885,18.079 L 149.014,17.319 C 149.134,16.757 149.346,16.346 149.65,16.085 C 149.955,15.824 150.279,15.728 150.623,15.796 C 151.12,15.893 151.384,16.298 151.416,17.01 Z M 151.129,18.932 C 151.007,19.484 150.806,19.878 150.528,20.113 C 150.249,20.349 149.956,20.437 149.647,20.376 C 149.321,20.312 149.074,20.112 148.908,19.778 C 148.738,19.438 148.707,19.005 148.815,18.478 L 151.129,18.932 Z" marker-start="none" marker-end="none"/>
      <path d="M 155.569,22.999 L 155.902,21.504 L 154.855,21.271 L 155.491,18.415 C 155.628,17.797 155.724,17.442 155.777,17.351 C 155.879,17.187 156.025,17.126 156.216,17.169 C 156.359,17.2 156.55,17.306 156.79,17.486 L 157.248,16.061 C 156.933,15.795 156.552,15.612 156.102,15.512 C 155.711,15.424 155.376,15.448 155.099,15.582 C 154.822,15.717 154.604,15.951 154.446,16.284 C 154.326,16.528 154.178,17.046 154.001,17.838 L 153.313,20.927 L 152.606,20.77 L 152.273,22.264 L 152.98,22.422 L 152.667,23.83 L 153.964,25.268 L 154.522,22.765 L 155.569,22.999 Z" marker-start="none" marker-end="none"/>
     </g>
    </g>
    <g id="Group_7">
     <path d="M 168.175,26.262 C 181.418,29.214 191.75,33.331 200.05,38.262" fill="none" stroke-width="0.5" stroke-linecap="round" stroke-linejoin="round" stroke="#ffffff" stroke-miterlimit="79.8403193612775"/>
     <g id="Group_8" fill-rule="nonzero" stroke-linejoin="miter" stroke="none" stroke-width="1" fill="#000000" stroke-miterlimit="79.8403193612775">
      <path d="M 168.998,26.405 L 166.534,36.119 L 169.119,36.774 C 170.082,37.018 170.723,37.132 171.042,37.114 C 171.553,37.084 172.024,36.862 172.456,36.45 C 172.887,36.037 173.201,35.445 173.397,34.671 C 173.575,33.969 173.592,33.347 173.447,32.805 C 173.302,32.263 173.056,31.845 172.707,31.552 C 172.358,31.259 171.698,30.989 170.726,30.743 L 169.672,30.476 L 170.601,26.812 L 168.998,26.405 Z M 168.555,34.882 L 169.254,32.126 L 170.142,32.351 C 170.738,32.502 171.133,32.647 171.326,32.785 C 171.518,32.924 171.656,33.119 171.737,33.373 C 171.819,33.626 171.819,33.912 171.739,34.23 C 171.657,34.552 171.517,34.806 171.32,34.991 C 171.122,35.176 170.91,35.28 170.684,35.302 C 170.457,35.325 170.008,35.251 169.337,35.081 L 168.555,34.882 Z" marker-start="none" marker-end="none"/>
      <path d="M 175.841,33.434 L 174.382,33.323 C 174.337,34.076 174.458,34.663 174.747,35.086 C 175.037,35.509 175.539,35.828 176.255,36.044 C 176.892,36.235 177.405,36.293 177.795,36.215 C 178.185,36.137 178.498,35.966 178.735,35.702 C 178.972,35.438 179.212,34.9 179.457,34.088 L 180.09,31.937 C 180.272,31.335 180.431,30.894 180.568,30.614 C 180.704,30.334 180.888,30.048 181.119,29.756 L 179.627,29.306 L 179.202,30.006 C 179.036,29.623 178.829,29.311 178.58,29.069 C 178.332,28.828 178.042,28.657 177.71,28.557 C 177.156,28.39 176.646,28.44 176.18,28.707 C 175.714,28.973 175.388,29.416 175.201,30.036 C 175.083,30.429 175.052,30.793 175.108,31.129 C 175.164,31.465 175.297,31.759 175.506,32.012 C 175.715,32.266 176.087,32.547 176.622,32.856 C 177.272,33.228 177.713,33.525 177.946,33.747 C 177.83,34.131 177.727,34.375 177.636,34.479 C 177.545,34.582 177.416,34.65 177.246,34.682 C 177.077,34.715 176.86,34.691 176.593,34.611 C 176.323,34.529 176.129,34.404 176.01,34.235 C 175.892,34.066 175.836,33.799 175.841,33.434 Z M 178.307,32.549 C 178.138,32.413 177.867,32.231 177.493,32.004 C 177.063,31.742 176.798,31.514 176.699,31.322 C 176.599,31.131 176.585,30.917 176.656,30.681 C 176.736,30.415 176.884,30.215 177.097,30.083 C 177.311,29.949 177.538,29.919 177.778,29.991 C 177.992,30.056 178.182,30.193 178.347,30.402 C 178.512,30.611 178.605,30.828 178.625,31.053 C 178.646,31.278 178.576,31.655 178.417,32.183 L 178.307,32.549 Z" marker-start="none" marker-end="none"/>
      <path d="M 182.182,37.847 L 182.692,36.404 L 181.681,36.046 L 182.657,33.288 C 182.868,32.69 183.005,32.35 183.069,32.266 C 183.19,32.115 183.343,32.073 183.527,32.138 C 183.665,32.187 183.842,32.315 184.058,32.522 L 184.684,31.163 C 184.405,30.86 184.048,30.633 183.614,30.479 C 183.236,30.345 182.901,30.328 182.609,30.428 C 182.318,30.528 182.073,30.734 181.876,31.046 C 181.727,31.274 181.518,31.771 181.247,32.535 L 180.192,35.519 L 179.509,35.277 L 178.998,36.721 L 179.681,36.963 L 179.2,38.322 L 180.315,39.906 L 181.17,37.489 L 182.182,37.847 Z" marker-start="none" marker-end="none"/>
      <path d="M 186.819,31.849 L 185.346,31.279 L 182.724,38.048 L 184.088,38.577 L 184.461,37.614 C 184.52,38.155 184.614,38.535 184.742,38.753 C 184.87,38.971 185.055,39.127 185.297,39.221 C 185.633,39.351 185.998,39.363 186.391,39.256 L 186.537,37.517 C 186.219,37.618 185.952,37.627 185.735,37.543 C 185.531,37.464 185.381,37.319 185.284,37.108 C 185.187,36.897 185.181,36.581 185.266,36.16 C 185.351,35.738 185.599,34.998 186.009,33.94 L 186.819,31.849 Z" marker-start="none" marker-end="none"/>
      <path d="M 186.041,40.426 L 185.331,42.055 L 186.779,42.686 L 187.489,41.056 L 186.041,40.426 Z M 189.334,32.868 L 186.435,39.523 L 187.882,40.154 L 190.782,33.499 L 189.334,32.868 Z" marker-start="none" marker-end="none"/>
      <path d="M 190.893,39.096 L 189.47,38.754 C 189.305,39.489 189.331,40.089 189.549,40.552 C 189.767,41.016 190.212,41.411 190.884,41.738 C 191.482,42.029 191.98,42.168 192.377,42.153 C 192.775,42.139 193.111,42.02 193.387,41.797 C 193.663,41.574 193.986,41.082 194.357,40.319 L 195.326,38.297 C 195.602,37.732 195.829,37.322 196.009,37.067 C 196.189,36.813 196.416,36.559 196.69,36.308 L 195.289,35.626 L 194.758,36.249 C 194.655,35.844 194.501,35.503 194.294,35.225 C 194.087,34.947 193.828,34.732 193.517,34.581 C 192.997,34.327 192.485,34.295 191.983,34.484 C 191.48,34.672 191.087,35.058 190.804,35.64 C 190.624,36.009 190.536,36.363 190.537,36.703 C 190.539,37.044 190.623,37.356 190.789,37.639 C 190.955,37.923 191.277,38.26 191.756,38.65 C 192.338,39.121 192.726,39.485 192.921,39.741 C 192.745,40.102 192.604,40.326 192.498,40.414 C 192.392,40.502 192.253,40.548 192.081,40.553 C 191.908,40.558 191.698,40.499 191.448,40.378 C 191.193,40.254 191.022,40.099 190.932,39.914 C 190.842,39.728 190.829,39.456 190.893,39.096 Z M 193.468,38.617 C 193.324,38.455 193.085,38.232 192.752,37.949 C 192.369,37.621 192.144,37.354 192.077,37.149 C 192.009,36.944 192.029,36.73 192.137,36.509 C 192.259,36.259 192.436,36.085 192.668,35.988 C 192.9,35.891 193.129,35.897 193.355,36.007 C 193.555,36.105 193.721,36.27 193.851,36.503 C 193.981,36.736 194.038,36.965 194.022,37.191 C 194.006,37.416 193.877,37.777 193.636,38.273 L 193.468,38.617 Z" marker-start="none" marker-end="none"/>
     </g>
    </g>
   </g>
  </g>
 </g>
</svg>
