<?xml version="1.0" encoding="UTF-8" standalone="no"?>
<!DOCTYPE svg PUBLIC "-//W3C//DTD SVG 1.1//EN" "http://www.w3.org/Graphics/SVG/1.1/DTD/svg11.dtd">
<svg width="100%" height="100%" viewBox="0 0 421 80" version="1.1" xmlns="http://www.w3.org/2000/svg" xmlns:xlink="http://www.w3.org/1999/xlink" xml:space="preserve" xmlns:serif="http://www.serif.com/" style="fill-rule:evenodd;clip-rule:evenodd;stroke-linejoin:round;stroke-miterlimit:1.41421;">
    <g transform="matrix(1,0,0,1,-1.5,-1.5)">
        <g id="Bookings">
            <g id="icon-Wn">
                <path d="M12.5,7L11,7L11,13L16.25,16.15L17,14.92L12.5,12.25L12.5,7Z" style="fill:rgb(115,115,115);fill-rule:nonzero;stroke:rgb(115,115,115);stroke-width:1px;"/>
                <path d="M11.99,2C6.47,2 2,6.48 2,12C2,17.52 6.47,22 11.99,22C17.52,22 22,17.52 22,12C22,6.48 17.52,2 11.99,2ZM12,20C7.58,20 4,16.42 4,12C4,7.58 7.58,4 12,4C16.42,4 20,7.58 20,12C20,16.42 16.42,20 12,20Z" style="fill:rgb(115,115,115);fill-rule:nonzero;stroke:rgb(115,115,115);stroke-width:1px;"/>
                <g transform="matrix(1,0,0,1,-0.657812,0)">
                    <text x="6.12px" y="20.758px" style="font-family:'Arial-BoldMT', 'Arial', sans-serif;font-weight:700;font-size:24px;fill:rgb(255,0,0);stroke:white;stroke-width:0.4px;">8</text>
                </g>
            </g>
            <g id="accountBox">
                <path d="M12.5,7L11,7L11,13L16.25,16.15L17,14.92L12.5,12.25L12.5,7Z" style="fill:rgb(115,115,115);fill-rule:nonzero;stroke:rgb(115,115,115);stroke-width:1px;"/>
                <path d="M11.99,2C6.47,2 2,6.48 2,12C2,17.52 6.47,22 11.99,22C17.52,22 22,17.52 22,12C22,6.48 17.52,2 11.99,2ZM12,20C7.58,20 4,16.42 4,12C4,7.58 7.58,4 12,4C16.42,4 20,7.58 20,12C20,16.42 16.42,20 12,20Z" style="fill:rgb(115,115,115);fill-rule:nonzero;stroke:rgb(115,115,115);stroke-width:1px;"/>
                <g transform="matrix(1,0,0,1,-0.657812,0)">
                    <text x="6.12px" y="20.758px" style="font-family:'Arial-BoldMT', 'Arial', sans-serif;font-weight:700;font-size:24px;fill:rgb(255,0,0);stroke:white;stroke-width:0.4px;">8</text>
                </g>
                <g transform="matrix(4.02733,0,0,1.58938,-94.5514,-20.1049)">
                    <path d="M128.071,36.348C128.071,35.114 127.675,34.112 127.188,34.112L32.115,34.112C31.628,34.112 31.233,35.114 31.233,36.348L31.233,60.819C31.233,62.053 31.628,63.054 32.115,63.054L127.188,63.054C127.675,63.054 128.071,62.053 128.071,60.819L128.071,36.348Z" style="fill:none;stroke:rgb(13,13,13);stroke-width:0.33px;stroke-linecap:round;stroke-miterlimit:1.5;"/>
                </g>
                <g transform="matrix(4.02733,0,0,0.725584,-94.5514,9.36094)">
                    <path d="M128.071,38.891C128.071,36.254 127.685,34.112 127.21,34.112L32.094,34.112C31.618,34.112 31.233,36.254 31.233,38.891L31.233,62.99L128.071,63.055L128.071,38.891Z" style="fill:rgb(182,179,179);stroke:rgb(13,13,13);stroke-width:0.35px;stroke-linecap:round;stroke-miterlimit:1.5;"/>
                </g>
            </g>
        </g>
    </g>
</svg>
