<?xml version="1.0" encoding="UTF-8"?>
<!DOCTYPE svg PUBLIC "-//W3C//DTD SVG 1.1//EN" "http://www.w3.org/Graphics/SVG/1.1/DTD/svg11.dtd">
<svg version="1.1" xmlns="http://www.w3.org/2000/svg" xmlns:xlink="http://www.w3.org/1999/xlink" x="0" y="0" width="24" height="24" viewBox="0, 0, 24, 24">
  <g id="icon-CL" transform="translate(0, 0)">
    <path d="M20.047,3.448 C19.82,2.692 19.183,2.153 18.433,2.153 L5.927,2.153 C5.176,2.153 4.551,2.692 4.312,3.448 L1.947,11.128 L1.947,21.385 C1.947,22.09 2.459,22.667 3.084,22.667 L4.221,22.667 C4.847,22.667 5.358,22.09 5.358,21.385 L5.358,20.103 L19.001,20.103 L19.001,21.385 C19.001,22.09 19.513,22.667 20.138,22.667 L21.275,22.667 C21.901,22.667 22.412,22.09 22.412,21.385 L22.412,11.128 L20.047,3.448 z M5.927,16.257 C4.983,16.257 4.221,15.398 4.221,14.334 C4.221,13.269 4.983,12.41 5.927,12.41 C6.87,12.41 7.632,13.269 7.632,14.334 C7.632,15.398 6.87,16.257 5.927,16.257 z M18.433,16.257 C17.489,16.257 16.728,15.398 16.728,14.334 C16.728,13.269 17.489,12.41 18.433,12.41 C19.377,12.41 20.138,13.269 20.138,14.334 C20.138,15.398 19.377,16.257 18.433,16.257 z M4.221,9.846 L5.927,4.077 L18.433,4.077 L20.138,9.846 L4.221,9.846 z" fill="#0000FF"/>
    <g>
      <text transform="matrix(1, 0, 0, 1, 14.257, 12.516)">
        <tspan x="-5.337" y="6.5" font-family="HelveticaNeue-Bold" font-size="18" fill="#FFFFFF">L</tspan>
      </text>
      <text transform="matrix(1, 0, 0, 1, 13.625, 13.484)">
        <tspan x="-5.337" y="6.5" font-family="HelveticaNeue-Bold" font-size="18" fill="#EF0302">L</tspan>
      </text>
    </g>
  </g>
</svg>
