<?xml version="1.0" encoding="UTF-8"?>
<!DOCTYPE svg PUBLIC "-//W3C//DTD SVG 1.1//EN" "http://www.w3.org/Graphics/SVG/1.1/DTD/svg11.dtd">
<svg version="1.1" xmlns="http://www.w3.org/2000/svg" xmlns:xlink="http://www.w3.org/1999/xlink" x="0" y="0" width="24" height="24" viewBox="0, 0, 24, 24">
  <g id="icon-BX" transform="translate(0, 0)">
    <path d="M3.795,17.164 C3.795,18.14 4.212,19.016 4.866,19.626 L4.866,21.601 C4.866,22.211 5.348,22.71 5.937,22.71 L7.008,22.71 C7.597,22.71 8.079,22.211 8.079,21.601 L8.079,20.491 L16.649,20.491 L16.649,21.601 C16.649,22.211 17.131,22.71 17.72,22.71 L18.791,22.71 C19.38,22.71 19.862,22.211 19.862,21.601 L19.862,19.626 C20.515,19.016 20.933,18.14 20.933,17.164 L20.933,6.072 C20.933,2.19 17.098,1.636 12.364,1.636 C7.629,1.636 3.795,2.19 3.795,6.072 L3.795,17.164 z M7.544,18.273 C6.655,18.273 5.937,17.53 5.937,16.609 C5.937,15.689 6.655,14.946 7.544,14.946 C8.433,14.946 9.15,15.689 9.15,16.609 C9.15,17.53 8.433,18.273 7.544,18.273 z M17.184,18.273 C16.295,18.273 15.577,17.53 15.577,16.609 C15.577,15.689 16.295,14.946 17.184,14.946 C18.073,14.946 18.791,15.689 18.791,16.609 C18.791,17.53 18.073,18.273 17.184,18.273 z M18.791,11.618 L5.937,11.618 L5.937,6.072 L18.791,6.072 L18.791,11.618 z" fill="#108810"/>
    <g>
      <path d="M3.234,0.812 L22.953,21.438" fill-opacity="0" stroke="#FFFFFF" stroke-width="1"/>
      <path d="M1.781,2.203 L20.344,21.516" fill-opacity="0" stroke="#EF0303" stroke-width="3"/>
    </g>
  </g>
</svg>
