<?xml version="1.0" encoding="UTF-8"?>
<!DOCTYPE svg PUBLIC "-//W3C//DTD SVG 1.1//EN" "http://www.w3.org/Graphics/SVG/1.1/DTD/svg11.dtd">
<svg version="1.1" xmlns="http://www.w3.org/2000/svg" xmlns:xlink="http://www.w3.org/1999/xlink" x="0" y="0" width="24" height="24" viewBox="0, 0, 24, 24">
  <g id="icon-B" transform="translate(0, 0)">
    <path d="M3.795,17.331 C3.795,18.307 4.212,19.184 4.866,19.794 L4.866,21.768 C4.866,22.378 5.348,22.877 5.937,22.877 L7.008,22.877 C7.597,22.877 8.079,22.378 8.079,21.768 L8.079,20.659 L16.649,20.659 L16.649,21.768 C16.649,22.378 17.131,22.877 17.72,22.877 L18.791,22.877 C19.38,22.877 19.862,22.378 19.862,21.768 L19.862,19.794 C20.515,19.184 20.933,18.307 20.933,17.331 L20.933,6.24 C20.933,2.358 17.098,1.803 12.364,1.803 C7.629,1.803 3.795,2.358 3.795,6.24 L3.795,17.331 z M7.544,18.441 C6.655,18.441 5.937,17.697 5.937,16.777 C5.937,15.856 6.655,15.113 7.544,15.113 C8.433,15.113 9.15,15.856 9.15,16.777 C9.15,17.697 8.433,18.441 7.544,18.441 z M17.184,18.441 C16.295,18.441 15.577,17.697 15.577,16.777 C15.577,15.856 16.295,15.113 17.184,15.113 C18.073,15.113 18.791,15.856 18.791,16.777 C18.791,17.697 18.073,18.441 17.184,18.441 z M18.791,11.786 L5.937,11.786 L5.937,6.24 L18.791,6.24 L18.791,11.786 z" fill="#108810"/>
  </g>
</svg>
