<?xml version="1.0" encoding="UTF-8"?>
<!DOCTYPE svg PUBLIC "-//W3C//DTD SVG 1.1//EN" "http://www.w3.org/Graphics/SVG/1.1/DTD/svg11.dtd">
<svg version="1.1" xmlns="http://www.w3.org/2000/svg" xmlns:xlink="http://www.w3.org/1999/xlink" x="0" y="0" width="24" height="24" viewBox="0, 0, 24, 24">
  <g id="icon-C" transform="translate(0, 0)">
    <path d="M20.336,5.231 C20.105,4.55 19.458,4.065 18.696,4.065 L5.99,4.065 C5.228,4.065 4.593,4.55 4.35,5.231 L1.948,12.15 L1.948,21.39 C1.948,22.025 2.468,22.545 3.103,22.545 L4.258,22.545 C4.893,22.545 5.413,22.025 5.413,21.39 L5.413,20.235 L19.273,20.235 L19.273,21.39 C19.273,22.025 19.793,22.545 20.428,22.545 L21.583,22.545 C22.219,22.545 22.738,22.025 22.738,21.39 L22.738,12.15 L20.336,5.231 z M5.99,16.77 C5.032,16.77 4.258,15.996 4.258,15.038 C4.258,14.079 5.032,13.305 5.99,13.305 C6.949,13.305 7.723,14.079 7.723,15.038 C7.723,15.996 6.949,16.77 5.99,16.77 z M18.696,16.77 C17.737,16.77 16.963,15.996 16.963,15.038 C16.963,14.079 17.737,13.305 18.696,13.305 C19.654,13.305 20.428,14.079 20.428,15.038 C20.428,15.996 19.654,16.77 18.696,16.77 z M4.258,10.995 L5.99,5.797 L18.696,5.797 L20.428,10.995 L4.258,10.995 z" fill="#0000FF"/>
  </g>
</svg>
