<?xml version="1.0" encoding="UTF-8"?>
<!DOCTYPE svg PUBLIC "-//W3C//DTD SVG 1.1//EN" "http://www.w3.org/Graphics/SVG/1.1/DTD/svg11.dtd">
<svg version="1.1" xmlns="http://www.w3.org/2000/svg" xmlns:xlink="http://www.w3.org/1999/xlink" x="0" y="0" width="24" height="24" viewBox="0, 0, 24, 24">
  <g id="icon-PX" transform="translate(0, 0)">
    <path d="M19.705,16.781 L19.705,22.166 Q19.705,22.371 19.573,22.504 Q19.441,22.636 19.235,22.636 L5.207,22.636 Q5.001,22.636 4.869,22.504 Q4.737,22.371 4.737,22.166 L4.737,19.965 Q4.737,19.774 4.877,19.635 Q5.016,19.495 5.207,19.495 L6.63,19.495 L6.63,13.875 L5.236,13.875 Q5.031,13.875 4.899,13.736 Q4.766,13.596 4.766,13.406 L4.766,11.483 Q4.766,11.278 4.899,11.146 Q5.031,11.014 5.236,11.014 L6.63,11.014 L6.63,7.741 Q6.63,5.232 8.442,3.603 Q10.255,1.974 13.057,1.974 Q15.772,1.974 17.973,3.809 Q18.105,3.926 18.12,4.109 Q18.135,4.293 18.017,4.44 L16.506,6.303 Q16.374,6.465 16.183,6.479 Q15.992,6.509 15.845,6.377 Q15.772,6.303 15.464,6.098 Q15.156,5.892 14.451,5.628 Q13.747,5.364 13.087,5.364 Q11.839,5.364 11.076,6.054 Q10.313,6.743 10.313,7.859 L10.313,11.014 L14.789,11.014 Q14.98,11.014 15.119,11.146 Q15.258,11.278 15.258,11.483 L15.258,13.406 Q15.258,13.596 15.119,13.736 Q14.98,13.875 14.789,13.875 L10.313,13.875 L10.313,19.437 L16.388,19.437 L16.388,16.781 Q16.388,16.59 16.52,16.45 Q16.653,16.311 16.858,16.311 L19.235,16.311 Q19.441,16.311 19.573,16.45 Q19.705,16.59 19.705,16.781 z" fill="#000000"/>
    <g>
      <path d="M5.375,3 L22.125,20.25" fill-opacity="0" stroke="#FFFFFF" stroke-width="1"/>
      <path d="M3.5,3 L19.75,20.625" fill-opacity="0" stroke="#EF0303" stroke-width="3"/>
    </g>
  </g>
</svg>
