<?xml version="1.0" encoding="UTF-8"?>
<!DOCTYPE svg PUBLIC "-//W3C//DTD SVG 1.1//EN" "http://www.w3.org/Graphics/SVG/1.1/DTD/svg11.dtd">
<svg version="1.1" xmlns="http://www.w3.org/2000/svg" xmlns:xlink="http://www.w3.org/1999/xlink" x="0" y="0" width="24" height="24" viewBox="0, 0, 24, 24">
  <g id="icon-WX" transform="translate(0, 0)">
    <g>
      <path d="M12.863,7.173 L11.311,7.173 L11.311,13.38 L16.743,16.639 L17.518,15.367 L12.863,12.604 z" fill="#000000"/>
      <path d="M12.335,2 C6.625,2 2,6.635 2,12.346 C2,18.056 6.625,22.691 12.335,22.691 C18.056,22.691 22.691,18.056 22.691,12.346 C22.691,6.635 18.056,2 12.335,2 z M12.346,20.622 C7.773,20.622 4.069,16.918 4.069,12.346 C4.069,7.773 7.773,4.069 12.346,4.069 C16.918,4.069 20.622,7.773 20.622,12.346 C20.622,16.918 16.918,20.622 12.346,20.622 z" fill="#000000"/>
      <g>
        <path d="M5.375,3 L22.125,20.25" fill-opacity="0" stroke="#FFFFFF" stroke-width="1"/>
        <path d="M3.5,3 L19.75,20.625" fill-opacity="0" stroke="#EF0303" stroke-width="3"/>
      </g>
    </g>
  </g>
</svg>
