<?xml version="1.0" encoding="UTF-8"?>
<!DOCTYPE svg PUBLIC "-//W3C//DTD SVG 1.1//EN" "http://www.w3.org/Graphics/SVG/1.1/DTD/svg11.dtd">
<svg version="1.1" xmlns="http://www.w3.org/2000/svg" xmlns:xlink="http://www.w3.org/1999/xlink" x="0" y="0" width="24" height="24" viewBox="0, 0, 24, 24">
  <g id="icon-BL" transform="translate(0, 0)">
    <path d="M3.966,17.158 C3.966,18.113 4.389,18.971 5.051,19.568 L5.051,21.5 C5.051,22.097 5.54,22.586 6.137,22.586 L7.223,22.586 C7.82,22.586 8.308,22.097 8.308,21.5 L8.308,20.415 L16.993,20.415 L16.993,21.5 C16.993,22.097 17.482,22.586 18.079,22.586 L19.164,22.586 C19.761,22.586 20.25,22.097 20.25,21.5 L20.25,19.568 C20.912,18.971 21.336,18.113 21.336,17.158 L21.336,6.302 C21.336,2.502 17.449,1.959 12.651,1.959 C7.852,1.959 3.966,2.502 3.966,6.302 L3.966,17.158 z M7.765,18.243 C6.864,18.243 6.137,17.516 6.137,16.615 C6.137,15.714 6.864,14.987 7.765,14.987 C8.666,14.987 9.394,15.714 9.394,16.615 C9.394,17.516 8.666,18.243 7.765,18.243 z M17.536,18.243 C16.635,18.243 15.907,17.516 15.907,16.615 C15.907,15.714 16.635,14.987 17.536,14.987 C18.437,14.987 19.164,15.714 19.164,16.615 C19.164,17.516 18.437,18.243 17.536,18.243 z M19.164,11.73 L6.137,11.73 L6.137,6.302 L19.164,6.302 L19.164,11.73 z" fill="#84C784" fill-opacity="0.973"/>
    <g>
      <text transform="matrix(1, 0, 0, 1, 14.196, 9.641)" display="none">
        <tspan x="-5.337" y="6.5" font-family="HelveticaNeue-Bold" font-size="18" fill="#FFFFFF">L</tspan>
      </text>
      <g>
        <path d="M8.777,2 L8.777,18.573 L20.714,18.573 L20.714,15.509 L12.488,15.509 L12.488,2 z" fill="#EF0302"/>
        <path d="M8.777,2 L8.777,18.573 L20.714,18.573 L20.714,15.509 L12.488,15.509 L12.488,2 z" fill-opacity="0" stroke="#5A0290" stroke-width="1"/>
      </g>
    </g>
  </g>
</svg>
