<?xml version="1.0" encoding="UTF-8"?>
<!DOCTYPE svg PUBLIC "-//W3C//DTD SVG 1.1//EN" "http://www.w3.org/Graphics/SVG/1.1/DTD/svg11.dtd">
<svg version="1.1" xmlns="http://www.w3.org/2000/svg" xmlns:xlink="http://www.w3.org/1999/xlink" x="0" y="0" width="24" height="24" viewBox="0, 0, 24, 24">
  <g id="icon-W" transform="translate(0, 0)">
    <path d="M12.335,2 C6.625,2 2,6.635 2,12.346 C2,18.056 6.625,22.691 12.335,22.691 C18.056,22.691 22.691,18.056 22.691,12.346 C22.691,6.635 18.056,2 12.335,2 z M12.346,20.622 C7.773,20.622 4.069,16.918 4.069,12.346 C4.069,7.773 7.773,4.069 12.346,4.069 C16.918,4.069 20.622,7.773 20.622,12.346 C20.622,16.918 16.918,20.622 12.346,20.622 z" fill="#000000"/>
    <path d="M12.5,7 L11,7 L11,13 L16.25,16.15 L17,14.92 L12.5,12.25 z" fill="#000000"/>
  </g>
</svg>
