<?xml version="1.0" encoding="UTF-8"?>
<!DOCTYPE svg PUBLIC "-//W3C//DTD SVG 1.1//EN" "http://www.w3.org/Graphics/SVG/1.1/DTD/svg11.dtd">
<svg version="1.1" xmlns="http://www.w3.org/2000/svg" xmlns:xlink="http://www.w3.org/1999/xlink" x="0" y="0" width="24" height="24" viewBox="0, 0, 24, 24">
  <g id="icon-TX" transform="translate(0, 0)">
    <path d="M17.894,18.252 L14.192,18.719 L14.352,5.692 L18.071,6.275 L18.071,11.142 L20.869,11.142 L20.55,2.05 C17.894,2.254 15.237,2.312 12.545,2.312 C9.889,2.312 7.215,2.254 4.47,2.05 L4.151,11.142 L6.967,11.142 L6.967,6.275 L10.65,5.692 L10.969,18.719 L7.144,18.252 L7.144,22.711 C9.747,22.565 11.075,22.478 12.51,22.478 C14.033,22.478 15.344,22.594 17.894,22.711 z" fill="#694206"/>
    <g>
      <path d="M4.064,2.782 L22.969,22.048" fill-opacity="0" stroke="#FFFFFF" stroke-width="1"/>
      <path d="M1.947,2.782 L20.289,22.467" fill-opacity="0" stroke="#EF0303" stroke-width="3"/>
    </g>
  </g>
</svg>
