<?xml version="1.0" encoding="UTF-8"?>
<!DOCTYPE svg PUBLIC "-//W3C//DTD SVG 1.1//EN" "http://www.w3.org/Graphics/SVG/1.1/DTD/svg11.dtd">
<svg version="1.1" xmlns="http://www.w3.org/2000/svg" xmlns:xlink="http://www.w3.org/1999/xlink" x="0" y="0" width="24" height="24" viewBox="0, 0, 24, 24">
  <g id="icon-P" transform="translate(0, 0)">
    <path d="M19.675,16.763 L19.675,22.127 Q19.675,22.332 19.544,22.463 Q19.412,22.595 19.208,22.595 L5.234,22.595 Q5.03,22.595 4.898,22.463 Q4.767,22.332 4.767,22.127 L4.767,19.935 Q4.767,19.745 4.905,19.606 Q5.044,19.467 5.234,19.467 L6.652,19.467 L6.652,13.869 L5.264,13.869 Q5.059,13.869 4.927,13.73 Q4.796,13.591 4.796,13.401 L4.796,11.486 Q4.796,11.282 4.927,11.15 Q5.059,11.019 5.264,11.019 L6.652,11.019 L6.652,7.759 Q6.652,5.26 8.457,3.637 Q10.262,2.015 13.054,2.015 Q15.758,2.015 17.951,3.842 Q18.082,3.959 18.097,4.142 Q18.111,4.324 17.994,4.471 L16.489,6.327 Q16.357,6.488 16.167,6.502 Q15.977,6.531 15.831,6.4 Q15.758,6.327 15.451,6.122 Q15.144,5.918 14.443,5.655 Q13.741,5.391 13.083,5.391 Q11.841,5.391 11.081,6.078 Q10.321,6.765 10.321,7.876 L10.321,11.019 L14.779,11.019 Q14.969,11.019 15.108,11.15 Q15.247,11.282 15.247,11.486 L15.247,13.401 Q15.247,13.591 15.108,13.73 Q14.969,13.869 14.779,13.869 L10.321,13.869 L10.321,19.409 L16.372,19.409 L16.372,16.763 Q16.372,16.573 16.504,16.434 Q16.635,16.295 16.84,16.295 L19.208,16.295 Q19.412,16.295 19.544,16.434 Q19.675,16.573 19.675,16.763 z" fill="#000000"/>
  </g>
</svg>
