<?xml version="1.0" encoding="UTF-8"?>
<!DOCTYPE svg PUBLIC "-//W3C//DTD SVG 1.1//EN" "http://www.w3.org/Graphics/SVG/1.1/DTD/svg11.dtd">
<svg version="1.1" xmlns="http://www.w3.org/2000/svg" xmlns:xlink="http://www.w3.org/1999/xlink" x="0" y="0" width="24" height="24" viewBox="0, 0, 24, 24">
  <g id="icon-+X" transform="translate(0, 0)">
    <path d="M22.696,12.996 C22.385,12.082 21.704,11.444 20.771,11.444 C19.36,11.444 18.642,12.868 18.092,14.229 L18.08,14.229 L18.331,11.274 L14.456,12.103 L14.887,15.547 L16.107,14.697 L16.226,19.055 L14.732,18.864 L14.732,22.117 C15.437,22.053 16.286,21.989 17.123,21.989 C17.937,21.989 18.75,22.053 20.089,22.117 L20.089,18.864 L18.212,19.055 L18.212,16.929 C18.666,15.887 19.276,14.995 20.041,15.016 L20.938,16.249 z" fill="#000000"/>
    <path d="M11.316,4.924 C10.823,4.488 9.37,3.616 7.981,3.616 C3.232,3.616 1.688,9.107 1.688,13.136 C1.688,18.088 3.413,22.63 7.981,22.63 C8.838,22.63 10.07,22.271 10.823,21.809 C11.796,21.244 12.718,20.321 13.34,19.346 L12.341,15.984 C11.679,16.856 10.278,18.884 7.981,18.884 C6.048,18.884 4.62,16.677 4.62,13.136 C4.62,9.902 6.126,7.234 7.981,7.234 C9.525,7.234 10.447,8.209 10.875,8.542 L10.473,11.776 L12.445,12.828 L14.158,3.564 L11.654,2.05 z" fill="#000000"/>
    <g>
      <path d="M3.756,3.187 L22.233,22.216" fill-opacity="0" stroke="#FFFFFF" stroke-width="1"/>
      <path d="M1.688,3.188 L19.613,22.63" fill-opacity="0" stroke="#EF0303" stroke-width="3"/>
    </g>
  </g>
</svg>
