<?xml version="1.0" encoding="UTF-8"?>
<!DOCTYPE svg PUBLIC "-//W3C//DTD SVG 1.1//EN" "http://www.w3.org/Graphics/SVG/1.1/DTD/svg11.dtd">
<svg version="1.1" xmlns="http://www.w3.org/2000/svg" xmlns:xlink="http://www.w3.org/1999/xlink" x="0" y="0" width="24" height="24" viewBox="0, 0, 24, 24">
  <g id="icon-CX" transform="translate(0, 0)">
    <path d="M20.382,5.272 C20.151,4.59 19.504,4.105 18.742,4.105 L6.036,4.105 C5.274,4.105 4.639,4.59 4.396,5.272 L1.994,12.191 L1.994,21.431 C1.994,22.066 2.513,22.586 3.149,22.586 L4.304,22.586 C4.939,22.586 5.459,22.066 5.459,21.431 L5.459,20.276 L19.319,20.276 L19.319,21.431 C19.319,22.066 19.839,22.586 20.474,22.586 L21.629,22.586 C22.264,22.586 22.784,22.066 22.784,21.431 L22.784,12.191 L20.382,5.272 z M6.036,16.811 C5.077,16.811 4.304,16.037 4.304,15.078 C4.304,14.12 5.077,13.346 6.036,13.346 C6.995,13.346 7.769,14.12 7.769,15.078 C7.769,16.037 6.995,16.811 6.036,16.811 z M18.742,16.811 C17.783,16.811 17.009,16.037 17.009,15.078 C17.009,14.12 17.783,13.346 18.742,13.346 C19.7,13.346 20.474,14.12 20.474,15.078 C20.474,16.037 19.7,16.811 18.742,16.811 z M4.304,11.036 L6.036,5.838 L18.742,5.838 L20.474,11.036 L4.304,11.036 z" fill="#0000FF"/>
    <g>
      <path d="M4.41,1.375 L23.329,22.506" fill-opacity="0" stroke="#FFFFFF" stroke-width="1"/>
      <path d="M3.016,2.8 L21.589,23.12" fill-opacity="0" stroke="#EF0303" stroke-width="3"/>
    </g>
  </g>
</svg>
